{"glyphs":{"0":{"ha":745,"x_min":68,"x_max":677,"o":"m 166 203 q 142 305 142 252 l 142 665 q 210 828 142 760 q 373 895 277 895 q 524 838 459 895 l 166 203 m 603 305 q 536 142 603 210 q 373 75 468 75 q 214 138 281 75 l 574 776 q 603 665 603 724 l 603 305 m 68 305 q 157 90 68 179 q 373 0 247 0 q 588 90 498 0 q 677 305 677 179 l 677 665 q 588 880 677 791 q 373 970 498 970 q 157 880 247 970 q 68 665 68 791 l 68 305 z "},"1":{"ha":304,"x_min":68,"x_max":236,"o":"m 161 895 l 161 37 q 172 11 161 22 q 199 0 183 0 q 224 11 214 0 q 236 37 236 22 l 236 932 q 224 959 236 948 q 199 970 214 970 l 105 970 q 79 959 90 970 q 68 932 68 948 q 79 906 68 917 q 105 895 90 895 l 161 895 z "},"2":{"ha":770,"x_min":68,"x_max":703,"o":"m 323 203 q 447 327 406 285 q 474 355 454 334 q 573 457 541 421 q 661 612 644 535 q 634 805 682 713 q 532 918 598 873 q 391 968 467 961 q 239 942 311 977 q 124 844 170 909 q 71 705 81 781 q 79 677 69 690 q 104 663 88 665 q 131 671 119 661 q 145 696 143 680 q 186 801 152 753 q 271 875 220 850 q 384 895 324 900 q 490 855 441 888 q 568 770 541 822 q 587 627 604 703 q 518 507 575 570 q 422 407 487 473 q 393 379 404 389 q 271 256 354 338 l 254 239 q 113 98 182 168 q 79 64 94 79 q 78 62 79 63 l 78 62 q 75 59 77 60 q 68 35 68 48 q 81 10 70 20 q 106 0 91 0 l 665 0 q 692 11 681 0 q 703 37 703 22 q 692 64 703 53 q 665 75 681 75 l 195 75 q 306 186 250 130 l 323 203 z "},"3":{"ha":732,"x_min":68,"x_max":665,"o":"m 338 1 q 348 0 343 0 l 404 0 q 588 77 511 0 q 665 261 665 153 q 538 485 665 408 q 630 578 596 520 q 665 709 665 639 q 588 893 665 817 q 404 970 511 970 l 348 970 q 338 968 343 970 q 329 970 334 970 q 144 893 221 970 q 68 709 68 817 q 79 682 68 693 q 105 671 90 671 q 132 682 121 671 q 142 709 142 693 q 197 841 142 786 q 329 895 252 895 q 338 897 334 895 q 348 895 343 895 l 404 895 q 535 841 481 895 q 590 709 590 786 q 535 577 590 631 q 404 522 481 522 l 348 522 q 321 511 332 522 q 311 485 311 500 q 321 458 311 469 q 348 448 332 448 l 404 448 q 535 393 481 448 q 590 261 590 338 q 535 130 590 184 q 404 75 481 75 l 348 75 q 338 73 343 75 q 329 75 334 75 q 197 130 252 75 q 142 261 142 184 q 132 288 142 277 q 105 298 121 298 q 79 288 90 298 q 68 261 68 277 q 144 77 68 153 q 329 0 221 0 q 338 1 334 0 z "},"4":{"ha":717,"x_min":68,"x_max":649,"o":"m 649 336 q 638 362 649 351 q 612 373 627 373 l 463 373 l 463 467 q 452 492 463 481 q 425 504 440 504 q 399 492 410 504 q 388 467 388 481 l 388 373 l 153 373 l 256 926 q 251 954 259 941 q 227 969 242 966 q 199 964 212 972 q 183 939 186 955 l 71 342 q 79 312 68 326 q 108 298 90 298 l 388 298 l 388 37 q 399 11 388 22 q 425 0 410 0 q 452 11 440 0 q 463 37 463 22 l 463 298 l 612 298 q 638 309 627 298 q 649 336 649 320 z "},"5":{"ha":658,"x_min":68,"x_max":590,"o":"m 590 280 q 508 477 590 395 q 311 559 426 559 l 142 559 l 142 895 l 517 895 q 543 906 532 895 q 554 932 554 917 q 543 959 554 948 q 517 970 532 970 l 105 970 q 79 959 90 970 q 68 932 68 948 l 68 522 q 79 496 68 507 q 105 485 90 485 l 311 485 q 455 425 395 485 q 515 280 515 365 q 455 135 515 195 q 311 75 395 75 l 105 75 q 79 64 90 75 q 68 37 68 53 q 79 11 68 22 q 105 0 90 0 l 311 0 q 508 82 426 0 q 590 280 590 164 z "},"6":{"ha":695,"x_min":68,"x_max":627,"o":"m 142 280 q 203 425 142 365 q 348 485 262 485 q 492 425 433 485 q 553 280 553 365 q 492 135 553 195 q 348 75 433 75 q 203 135 262 75 q 142 280 142 195 m 627 280 q 545 477 627 395 q 348 559 463 559 q 142 470 226 559 l 142 690 q 203 835 142 775 q 348 895 262 895 q 492 835 433 895 q 553 690 553 775 q 564 664 553 675 q 590 653 574 653 q 616 664 606 653 q 627 690 627 675 q 545 888 627 806 q 348 970 463 970 q 150 888 232 970 q 68 690 68 806 l 68 280 q 150 82 68 164 q 348 0 232 0 q 545 82 463 0 q 627 280 627 164 z "},"7":{"ha":718,"x_min":68,"x_max":650,"o":"m 105 970 q 79 959 90 970 q 68 932 68 948 q 79 906 68 917 q 105 895 90 895 l 557 895 l 275 49 q 277 20 270 35 q 298 2 284 7 q 311 0 304 0 q 346 26 337 0 l 644 921 q 639 954 650 939 q 609 970 628 970 l 105 970 z "},"8":{"ha":736,"x_min":68,"x_max":668,"o":"m 199 389 q 336 448 255 448 l 400 448 q 537 389 481 448 q 589 253 592 332 q 532 126 586 178 q 403 75 477 75 l 334 75 q 205 126 258 75 q 147 253 151 178 q 199 389 144 332 m 147 701 q 199 837 144 779 q 336 895 255 895 l 400 895 q 537 837 481 895 q 589 701 592 779 q 532 574 586 625 q 403 522 477 522 l 334 522 q 205 574 258 522 q 147 701 151 625 m 153 73 q 334 0 229 0 l 403 0 q 583 73 508 0 q 663 250 659 145 q 591 441 668 360 q 536 484 567 466 q 583 520 562 500 q 663 697 659 593 q 591 888 668 808 q 400 970 513 970 l 336 970 q 145 888 223 970 q 73 697 68 808 q 153 520 77 593 q 200 484 174 500 q 145 441 170 466 q 73 250 68 360 q 153 73 77 145 z "},"9":{"ha":695,"x_min":68,"x_max":627,"o":"m 348 485 q 203 545 262 485 q 142 690 142 606 q 203 835 142 775 q 348 895 262 895 q 492 835 433 895 q 553 690 553 775 q 492 545 553 606 q 348 485 433 485 m 553 37 q 564 11 553 22 q 590 0 574 0 q 616 11 606 0 q 627 37 627 22 l 627 690 q 545 888 627 806 q 348 970 463 970 q 150 888 232 970 q 68 690 68 806 q 150 492 68 574 q 348 410 232 410 q 553 500 469 410 l 553 37 z "},"\u0000":{"ha":0,"x_min":0,"x_max":0,"o":""}," ":{"ha":345,"x_min":0,"x_max":0,"o":""},"!":{"ha":210,"x_min":68,"x_max":142,"o":"m 105 75 q 79 64 90 75 q 68 37 68 53 q 79 11 68 22 q 105 0 90 0 q 132 11 121 0 q 142 37 142 22 q 132 64 142 53 q 105 75 121 75 m 105 970 q 79 959 90 970 q 68 932 68 948 l 68 205 q 79 179 68 190 q 105 168 90 168 q 132 179 121 168 q 142 205 142 190 l 142 932 q 132 959 142 948 q 105 970 121 970 z "},"\"":{"ha":322,"x_min":68,"x_max":254,"o":"m 105 821 q 132 831 121 821 q 142 858 142 842 l 142 932 q 132 959 142 948 q 105 970 121 970 q 79 959 90 970 q 68 932 68 948 l 68 858 q 79 831 68 842 q 105 821 90 821 m 254 932 q 243 959 254 948 q 217 970 233 970 q 191 959 201 970 q 180 932 180 948 l 180 858 q 191 831 180 842 q 217 821 201 821 q 243 831 233 821 q 254 858 254 842 l 254 932 z "},"#":{"ha":994,"x_min":68,"x_max":926,"o":"m 315 355 l 363 616 l 661 616 l 612 355 l 315 355 m 553 44 q 559 16 551 29 q 583 1 568 3 q 590 0 587 0 q 627 31 621 0 l 673 280 l 833 280 q 859 291 848 280 q 870 317 870 302 q 859 343 870 332 q 833 355 848 355 l 688 355 l 736 616 l 888 616 q 915 627 904 616 q 926 653 926 637 q 915 680 926 668 q 888 690 904 690 l 751 690 l 795 926 q 789 954 798 941 q 765 969 780 966 q 737 964 749 972 q 722 939 724 955 l 675 690 l 377 690 l 422 926 q 416 954 425 941 q 392 969 407 966 q 363 964 376 972 q 348 939 351 955 l 302 690 l 161 690 q 135 680 146 690 q 124 653 124 668 q 135 627 124 637 q 161 616 146 616 l 288 616 l 239 355 l 105 355 q 79 343 90 355 q 68 317 68 332 q 79 291 68 302 q 105 280 90 280 l 224 280 l 180 44 q 186 16 178 29 q 210 1 195 3 q 217 0 214 0 q 254 31 248 0 l 300 280 l 597 280 l 553 44 z "},"$":{"ha":675,"x_min":68,"x_max":608,"o":"m 404 781 q 495 743 457 781 q 533 651 533 705 q 544 625 533 636 q 570 614 555 614 q 597 625 586 614 q 608 651 608 636 q 548 795 608 736 q 404 855 488 855 l 379 855 l 379 932 q 368 959 379 948 q 342 970 357 970 q 315 959 326 970 q 304 932 304 948 l 304 855 l 271 855 q 127 795 187 855 q 68 651 68 736 q 127 507 68 567 q 271 448 187 448 l 404 448 q 495 410 457 448 q 533 319 533 372 q 495 227 533 265 q 404 189 457 189 l 271 189 q 180 227 218 189 q 142 319 142 265 q 132 345 142 334 q 105 356 121 356 q 79 345 90 356 q 68 319 68 334 q 127 174 68 234 q 271 115 187 115 l 304 115 l 304 37 q 315 11 304 22 q 342 0 326 0 q 368 11 357 0 q 379 37 379 22 l 379 115 l 404 115 q 548 174 488 115 q 608 319 608 234 q 548 463 608 403 q 404 522 488 522 l 271 522 q 180 560 218 522 q 142 651 142 598 q 180 743 142 705 q 271 781 218 781 l 404 781 z "},"%":{"ha":751,"x_min":68,"x_max":684,"o":"m 187 522 q 155 535 169 522 q 142 567 142 549 q 155 599 142 585 q 187 612 169 612 q 219 599 205 612 q 232 567 232 585 q 219 535 232 549 q 187 522 205 522 m 307 567 q 271 652 307 616 q 187 686 237 686 q 103 652 138 686 q 68 567 68 616 q 103 483 68 517 q 187 448 138 448 q 271 483 237 448 q 307 567 307 517 m 564 377 q 532 390 545 377 q 519 422 519 403 q 532 453 519 440 q 564 467 545 467 q 595 453 583 467 q 609 422 609 440 q 595 390 609 403 q 564 377 583 377 m 684 422 q 648 506 684 471 q 564 541 613 541 q 479 506 515 541 q 445 422 445 471 q 479 337 445 372 q 564 302 515 302 q 648 337 613 302 q 684 422 684 372 m 285 1 q 292 0 288 0 q 328 31 323 0 l 496 926 q 490 954 499 941 q 467 969 481 966 q 439 964 451 972 q 423 939 426 955 l 255 44 q 261 16 252 29 q 285 1 270 3 z "},"&":{"ha":826,"x_min":68,"x_max":758,"o":"m 359 0 q 558 83 475 1 q 646 280 642 164 l 721 280 q 747 291 736 280 q 758 317 758 302 q 747 343 758 332 q 721 355 736 355 l 497 355 q 471 343 481 355 q 460 317 460 332 q 471 291 460 302 q 497 280 481 280 l 571 280 q 505 135 567 195 q 357 75 443 75 q 205 138 268 75 q 142 290 142 201 q 205 442 142 379 q 358 505 269 505 l 379 505 q 406 516 394 505 q 416 543 416 527 q 406 569 416 558 q 379 580 394 580 l 342 580 q 231 626 277 580 q 184 737 184 672 q 231 848 184 802 q 342 895 277 895 l 358 895 q 469 848 423 895 q 515 737 515 802 q 526 711 515 722 q 553 700 537 700 q 579 711 568 700 q 590 737 590 722 q 522 901 590 833 q 358 969 454 969 l 342 969 q 178 901 245 969 q 110 737 110 833 q 216 543 110 612 q 109 438 149 505 q 68 290 68 370 q 152 86 68 171 q 355 0 236 1 l 359 0 z "},"'":{"ha":210,"x_min":68,"x_max":142,"o":"m 105 821 q 132 831 121 821 q 142 858 142 842 l 142 932 q 132 959 142 948 q 105 970 121 970 q 79 959 90 970 q 68 932 68 948 l 68 858 q 79 831 68 842 q 105 821 90 821 z "},"(":{"ha":450,"x_min":68,"x_max":382,"o":"m 371 1093 q 345 1104 360 1104 q 318 1093 329 1104 q 130 810 195 970 q 68 489 68 656 q 130 168 68 322 q 318 -115 195 7 q 345 -126 329 -126 q 371 -115 360 -126 q 382 -89 382 -104 q 371 -62 382 -73 q 143 489 143 165 q 371 1041 143 812 q 382 1067 382 1052 q 371 1093 382 1082 z "},")":{"ha":450,"x_min":68,"x_max":382,"o":"m 79 -114 q 105 -125 90 -125 q 132 -114 121 -125 q 319 169 254 9 q 382 490 382 323 q 319 812 382 658 q 132 1095 254 972 q 105 1105 121 1105 q 79 1095 90 1105 q 68 1068 68 1084 q 79 1042 68 1053 q 307 490 307 814 q 79 -61 307 168 q 68 -87 68 -72 q 79 -114 68 -103 z "},"*":{"ha":300,"x_min":68,"x_max":232,"o":"m 132 812 q 150 793 132 793 q 169 812 169 793 l 169 845 l 196 827 q 206 823 201 823 q 222 832 216 823 q 216 858 232 848 l 184 880 l 216 902 q 222 928 232 912 q 196 933 212 943 l 169 915 l 169 947 q 150 966 169 966 q 132 947 132 966 l 132 915 l 104 933 q 78 928 88 943 q 83 902 68 912 l 116 880 l 83 858 q 78 832 68 848 q 94 823 83 823 q 104 827 99 823 l 132 845 l 132 812 z "},"+":{"ha":528,"x_min":68,"x_max":460,"o":"m 264 288 q 290 299 279 288 q 301 326 301 310 l 301 447 l 422 447 q 448 458 437 447 q 460 484 460 469 q 448 511 460 500 q 422 522 437 522 l 301 522 l 301 643 q 290 669 301 658 q 264 680 279 680 q 237 669 248 680 q 227 643 227 658 l 227 522 l 105 522 q 79 511 90 522 q 68 484 68 500 q 79 458 68 469 q 105 447 90 447 l 227 447 l 227 326 q 237 299 227 310 q 264 288 248 288 z "},",":{"ha":210,"x_min":68,"x_max":142,"o":"m 105 75 q 79 64 90 75 q 68 37 68 53 l 68 -37 q 79 -64 68 -53 q 105 -75 90 -75 q 132 -64 121 -75 q 142 -37 142 -53 l 142 37 q 132 64 142 53 q 105 75 121 75 z "},"-":{"ha":528,"x_min":68,"x_max":460,"o":"m 460 485 q 448 511 460 500 q 422 522 437 522 l 105 522 q 79 511 90 522 q 68 485 68 500 q 79 458 68 469 q 105 448 90 448 l 422 448 q 448 458 437 448 q 460 485 460 469 z "},".":{"ha":210,"x_min":68,"x_max":142,"o":"m 132 11 q 142 37 142 22 q 132 64 142 53 q 105 75 121 75 q 79 64 90 75 q 68 37 68 53 q 79 11 68 22 q 105 0 90 0 q 132 11 121 0 z "},"/":{"ha":382,"x_min":68,"x_max":315,"o":"m 282 969 q 254 964 267 972 q 239 939 241 955 l 71 44 q 77 16 68 29 q 100 1 85 3 q 107 0 104 0 q 144 31 138 0 l 312 926 q 306 954 315 941 q 282 969 297 966 z "},":":{"ha":210,"x_min":68,"x_max":142,"o":"m 105 75 q 79 64 90 75 q 68 37 68 53 q 79 11 68 22 q 105 0 90 0 q 132 11 121 0 q 142 37 142 22 q 132 64 142 53 q 105 75 121 75 m 105 522 q 79 511 90 522 q 68 485 68 500 q 79 458 68 469 q 105 448 90 448 q 132 458 121 448 q 142 485 142 469 q 132 511 142 500 q 105 522 121 522 z "},";":{"ha":210,"x_min":68,"x_max":142,"o":"m 105 522 q 79 511 90 522 q 68 485 68 500 q 79 458 68 469 q 105 448 90 448 q 132 458 121 448 q 142 485 142 469 q 132 511 142 500 q 105 522 121 522 m 105 75 q 79 64 90 75 q 68 37 68 53 l 68 -37 q 79 -64 68 -53 q 105 -75 90 -75 q 132 -64 121 -75 q 142 -37 142 -53 l 142 37 q 132 64 142 53 q 105 75 121 75 z "},"<":{"ha":397,"x_min":68,"x_max":330,"o":"m 319 676 q 294 688 309 688 q 267 679 278 689 l 80 511 q 68 484 68 500 q 80 456 68 467 l 267 288 q 292 278 277 278 q 319 290 309 278 q 329 317 330 302 q 317 343 328 333 l 161 484 l 317 623 q 329 649 328 633 q 319 676 330 665 z "},"=":{"ha":528,"x_min":68,"x_max":460,"o":"m 105 597 q 79 586 90 597 q 68 559 68 575 q 79 533 68 544 q 105 522 90 522 l 422 522 q 448 533 437 522 q 460 559 460 544 q 448 586 460 575 q 422 597 437 597 l 105 597 m 105 448 q 79 437 90 448 q 68 410 68 426 q 79 384 68 395 q 105 373 90 373 l 422 373 q 448 384 437 373 q 460 410 460 395 q 448 437 460 426 q 422 448 437 448 l 105 448 z "},">":{"ha":397,"x_min":68,"x_max":330,"o":"m 78 676 q 68 649 68 665 q 81 623 69 633 l 237 484 l 81 343 q 68 317 69 333 q 78 290 68 302 q 106 278 90 278 q 131 288 120 278 l 317 456 q 330 484 330 467 q 317 511 330 500 l 131 679 q 104 688 119 689 q 78 676 88 688 z "},"?":{"ha":695,"x_min":68,"x_max":627,"o":"m 348 970 q 150 888 232 970 q 68 690 68 806 q 79 664 68 675 q 105 653 90 653 q 132 664 121 653 q 142 690 142 675 q 203 835 142 775 q 348 895 262 895 q 492 835 433 895 q 553 690 553 775 q 492 545 553 606 q 348 485 433 485 q 321 474 332 485 q 311 448 311 463 l 311 205 q 321 179 311 190 q 348 168 332 168 q 374 179 363 168 q 385 205 385 190 l 385 413 q 557 505 488 427 q 627 690 627 585 q 545 888 627 806 q 348 970 463 970 m 348 75 q 321 64 332 75 q 311 37 311 53 q 321 11 311 22 q 348 0 332 0 q 374 11 363 0 q 385 37 385 22 q 374 64 385 53 q 348 75 363 75 z "},"@":{"ha":1108,"x_min":68,"x_max":1040,"o":"m 555 319 q 437 368 486 319 q 388 487 388 418 q 437 606 388 557 q 555 655 486 655 q 674 606 625 655 q 724 487 724 557 q 674 368 724 418 q 555 319 625 319 m 555 972 q 213 830 355 972 q 71 488 71 688 q 102 314 68 401 q 115 283 108 298 q 183 177 142 226 q 188 171 185 174 q 188 171 188 171 q 210 147 199 158 q 373 36 281 73 q 557 0 462 0 q 689 20 626 0 q 711 39 703 24 q 713 66 718 52 q 694 89 709 81 q 666 91 681 96 q 401 105 537 50 q 267 196 326 136 q 265 197 265 197 q 258 204 262 200 q 258 205 258 204 q 258 205 258 205 q 255 208 258 205 q 200 281 224 242 q 197 287 198 286 l 197 288 q 149 541 131 406 q 265 777 168 679 q 555 897 385 897 q 846 777 726 897 q 951 597 922 701 q 956 395 979 496 q 955 392 955 393 q 954 388 954 391 q 871 224 931 297 l 751 344 q 798 487 798 408 q 727 659 798 587 q 555 730 656 730 q 385 659 455 730 q 313 487 313 587 q 385 316 313 387 q 555 245 455 245 q 699 292 635 245 l 846 144 q 872 133 857 133 q 899 144 888 133 q 927 175 913 159 q 927 176 927 176 q 1040 465 1033 301 q 1040 469 1040 464 q 1040 476 1040 474 q 1040 487 1040 482 q 899 830 1040 688 q 555 972 757 972 z "},"A":{"ha":1002,"x_min":68,"x_max":934,"o":"m 922 17 q 926 52 934 34 l 534 947 q 500 970 524 970 q 465 947 475 970 l 74 52 q 73 24 68 38 q 93 3 79 9 q 108 0 100 0 q 142 22 132 0 l 500 840 l 834 75 l 406 75 q 380 64 391 75 q 369 37 369 53 q 380 11 369 22 q 406 0 391 0 l 891 0 q 922 17 911 0 z "},"B":{"ha":863,"x_min":68,"x_max":795,"o":"m 142 448 l 534 448 q 666 393 611 448 q 721 261 721 338 q 666 130 721 184 q 534 75 611 75 l 142 75 l 142 448 m 142 895 l 460 895 q 591 841 536 895 q 646 709 646 786 q 591 577 646 631 q 460 522 536 522 l 142 522 l 142 895 m 534 0 q 719 77 642 0 q 795 261 795 153 q 747 412 795 345 q 624 506 700 478 q 721 709 721 585 q 644 893 721 817 q 460 970 568 970 l 105 970 q 79 959 90 970 q 68 932 68 948 l 68 37 q 79 11 68 22 q 105 0 90 0 l 534 0 z "},"C":{"ha":975,"x_min":68,"x_max":907,"o":"m 553 0 q 896 142 753 0 q 907 168 907 153 q 896 195 907 184 q 869 205 885 205 q 843 195 854 205 q 553 75 723 75 q 262 195 382 75 q 142 485 142 315 q 262 775 142 655 q 553 895 382 895 q 843 775 723 895 q 869 764 854 764 q 896 775 885 764 q 907 802 907 786 q 896 828 907 817 q 553 970 753 970 q 210 828 352 970 q 68 485 68 686 q 210 142 68 284 q 553 0 352 0 z "},"D":{"ha":882,"x_min":68,"x_max":814,"o":"m 814 485 q 672 828 814 686 q 329 970 530 970 l 105 970 q 79 959 90 970 q 68 932 68 948 q 79 906 68 917 q 105 895 90 895 l 329 895 q 619 775 498 895 q 739 485 739 654 q 619 195 739 315 q 329 75 498 75 l 105 75 q 79 64 90 75 q 68 37 68 53 q 79 11 68 22 q 105 0 90 0 l 329 0 q 672 142 530 0 q 814 485 814 284 z "},"E":{"ha":826,"x_min":68,"x_max":758,"o":"m 758 37 q 747 64 758 53 q 721 75 736 75 l 105 75 q 79 64 90 75 q 68 37 68 53 q 79 11 68 22 q 105 0 90 0 l 721 0 q 747 11 736 0 q 758 37 758 22 m 105 970 q 79 959 90 970 q 68 932 68 948 q 79 906 68 917 q 105 895 90 895 l 721 895 q 747 906 736 895 q 758 932 758 917 q 747 959 758 948 q 721 970 736 970 l 105 970 m 105 522 q 79 511 90 522 q 68 485 68 500 q 79 458 68 469 q 105 448 90 448 l 721 448 q 747 458 736 448 q 758 485 758 469 q 747 511 758 500 q 721 522 736 522 l 105 522 z "},"F":{"ha":826,"x_min":68,"x_max":758,"o":"m 105 0 q 132 11 121 0 q 142 37 142 22 l 142 448 l 572 448 q 597 458 587 448 q 609 485 609 469 q 597 511 609 500 q 572 522 587 522 l 142 522 l 142 895 l 721 895 q 747 906 736 895 q 758 932 758 917 q 747 959 758 948 q 721 970 736 970 l 105 970 q 79 959 90 970 q 68 932 68 948 l 68 37 q 79 11 68 22 q 105 0 90 0 z "},"G":{"ha":975,"x_min":68,"x_max":907,"o":"m 553 0 q 896 142 753 0 q 907 168 907 153 l 907 485 q 896 511 907 500 q 869 522 885 522 l 534 522 q 508 511 519 522 q 497 485 497 500 q 508 458 497 469 q 534 448 519 448 l 832 448 l 832 184 q 553 75 714 75 q 262 195 382 75 q 142 485 142 315 q 262 775 142 655 q 553 895 382 895 q 843 775 723 895 q 869 764 854 764 q 896 775 885 764 q 907 802 907 786 q 896 828 907 817 q 553 970 753 970 q 210 828 352 970 q 68 485 68 686 q 210 142 68 284 q 553 0 352 0 z "},"H":{"ha":863,"x_min":68,"x_max":795,"o":"m 105 0 q 132 11 121 0 q 142 37 142 22 l 142 448 l 721 448 l 721 37 q 732 11 721 22 q 758 0 743 0 q 785 11 773 0 q 795 37 795 22 l 795 932 q 785 959 795 948 q 758 970 773 970 q 732 959 743 970 q 721 932 721 948 l 721 522 l 142 522 l 142 932 q 132 959 142 948 q 105 970 121 970 q 79 959 90 970 q 68 932 68 948 l 68 37 q 79 11 68 22 q 105 0 90 0 z "},"I":{"ha":210,"x_min":68,"x_max":142,"o":"m 105 0 q 132 11 121 0 q 142 37 142 22 l 142 932 q 132 959 142 948 q 105 970 121 970 q 79 959 90 970 q 68 932 68 948 l 68 37 q 79 11 68 22 q 105 0 90 0 z "},"J":{"ha":528,"x_min":68,"x_max":460,"o":"m 105 0 q 355 104 252 0 q 460 355 460 208 l 460 932 q 448 959 460 948 q 422 970 437 970 q 396 959 407 970 q 385 932 385 948 l 385 355 q 303 157 385 239 q 105 75 221 75 q 79 64 90 75 q 68 37 68 53 q 79 11 68 22 q 105 0 90 0 z "},"K":{"ha":808,"x_min":68,"x_max":740,"o":"m 105 0 q 132 11 121 0 q 142 37 142 22 l 142 375 l 250 472 l 675 12 q 702 0 686 0 q 727 10 717 0 q 739 36 739 20 q 730 62 740 52 l 305 522 l 727 905 q 739 930 739 916 q 730 958 740 946 q 704 970 720 969 q 677 960 688 970 l 142 476 l 142 932 q 132 959 142 948 q 105 970 121 970 q 79 959 90 970 q 68 932 68 948 l 68 37 q 79 11 68 22 q 105 0 90 0 z "},"L":{"ha":844,"x_min":68,"x_max":777,"o":"m 739 0 q 766 11 755 0 q 777 37 777 22 q 766 64 777 53 q 739 75 755 75 l 142 75 l 142 932 q 132 959 142 948 q 105 970 121 970 q 79 959 90 970 q 68 932 68 948 l 68 37 q 79 11 68 22 q 105 0 90 0 l 739 0 z "},"M":{"ha":1031,"x_min":68,"x_max":963,"o":"m 105 0 q 132 11 121 0 q 142 37 142 22 l 142 816 l 485 333 q 515 317 496 317 q 546 333 534 317 l 888 816 l 888 37 q 899 11 888 22 q 926 0 910 0 q 952 11 941 0 q 963 37 963 22 l 963 932 q 937 968 963 960 q 895 954 911 977 l 515 419 l 136 954 q 94 968 120 977 q 68 932 68 960 l 68 37 q 79 11 68 22 q 105 0 90 0 z "},"N":{"ha":901,"x_min":68,"x_max":833,"o":"m 105 0 q 132 11 121 0 q 142 37 142 22 l 142 823 l 766 14 q 795 0 777 0 q 807 2 802 0 q 833 37 833 11 l 833 932 q 822 959 833 948 q 795 970 810 970 q 769 959 780 970 q 758 932 758 948 l 758 146 l 135 956 q 93 968 119 977 q 68 932 68 960 l 68 37 q 79 11 68 22 q 105 0 90 0 z "},"O":{"ha":1105,"x_min":68,"x_max":1038,"o":"m 553 75 q 262 195 383 75 q 142 485 142 315 q 262 775 142 654 q 553 895 383 895 q 843 775 722 895 q 963 485 963 654 q 843 195 963 315 q 553 75 722 75 m 553 970 q 210 828 352 970 q 68 485 68 686 q 210 142 68 284 q 553 0 352 0 q 896 142 753 0 q 1038 485 1038 284 q 896 828 1038 686 q 553 970 753 970 z "},"P":{"ha":826,"x_min":68,"x_max":758,"o":"m 452 895 q 615 827 547 895 q 684 663 684 760 q 615 499 684 568 q 452 431 547 431 l 105 431 q 79 420 90 431 q 68 394 68 410 l 68 37 q 79 11 68 22 q 105 0 90 0 q 132 11 121 0 q 142 37 142 22 l 142 357 l 452 357 q 668 447 578 357 q 758 663 758 536 q 668 880 758 790 q 452 970 578 970 l 105 970 q 79 959 90 970 q 68 932 68 948 q 79 906 68 917 q 105 895 90 895 l 452 895 z "},"Q":{"ha":1105,"x_min":68,"x_max":1038,"o":"m 590 167 q 579 193 590 182 q 553 204 568 204 q 526 193 537 204 q 515 167 515 182 l 515 75 q 251 207 358 90 q 142 484 142 324 q 262 774 142 654 q 553 895 383 895 q 843 774 722 895 q 963 484 963 654 q 855 207 963 324 q 590 75 747 90 l 590 167 m 553 969 q 210 827 352 969 q 68 484 68 685 q 210 141 68 283 q 515 1 337 14 l 515 -94 q 526 -121 515 -110 q 553 -132 537 -132 q 579 -121 568 -132 q 590 -94 590 -110 l 590 1 q 896 141 768 14 q 1038 484 1038 283 q 896 827 1038 685 q 553 969 753 969 z "},"R":{"ha":835,"x_min":68,"x_max":767,"o":"m 105 0 q 132 11 121 0 q 142 37 142 22 l 142 357 l 384 357 l 702 12 q 729 0 713 0 q 755 10 744 0 q 766 36 766 20 q 757 62 767 52 l 484 359 q 677 458 599 372 q 756 663 756 546 q 666 880 756 790 q 450 970 576 970 l 105 970 q 79 959 90 970 q 68 932 68 948 q 79 906 68 917 q 105 895 90 895 l 450 895 q 614 827 545 895 q 682 663 682 760 q 614 499 682 568 q 450 431 545 431 l 105 431 q 79 420 90 431 q 68 394 68 410 l 68 37 q 79 11 68 22 q 105 0 90 0 z "},"S":{"ha":836,"x_min":68,"x_max":768,"o":"m 329 75 q 197 130 252 75 q 142 261 142 184 q 132 288 142 277 q 105 298 121 298 q 79 288 90 298 q 68 261 68 277 q 144 77 68 153 q 329 0 221 0 l 507 0 q 691 77 615 0 q 768 261 768 153 q 691 446 768 369 q 507 522 615 522 l 329 522 q 197 577 252 522 q 142 709 142 631 q 197 841 142 786 q 329 895 252 895 l 507 895 q 639 841 584 895 q 693 709 693 786 q 704 682 693 693 q 730 671 715 671 q 757 682 746 671 q 768 709 768 693 q 691 893 768 817 q 507 970 615 970 l 329 970 q 144 893 221 970 q 68 709 68 817 q 144 524 68 601 q 329 448 221 448 l 507 448 q 639 393 584 448 q 693 261 693 338 q 639 130 693 184 q 507 75 584 75 l 329 75 z "},"T":{"ha":901,"x_min":68,"x_max":833,"o":"m 413 895 l 413 37 q 424 11 413 22 q 450 0 435 0 q 477 11 466 0 q 488 37 488 22 l 488 895 l 795 895 q 822 906 810 895 q 833 932 833 917 q 822 959 833 948 q 795 970 810 970 l 105 970 q 79 959 90 970 q 68 932 68 948 q 79 906 68 917 q 105 895 90 895 l 413 895 z "},"U":{"ha":863,"x_min":68,"x_max":795,"o":"m 795 932 q 785 959 795 948 q 758 970 773 970 q 732 959 743 970 q 721 932 721 948 l 721 363 q 636 159 721 244 q 431 75 551 75 q 227 159 312 75 q 142 363 142 244 l 142 932 q 132 959 142 948 q 105 970 121 970 q 79 959 90 970 q 68 932 68 948 l 68 363 q 174 106 68 214 q 431 0 281 0 q 688 106 582 0 q 795 363 795 214 l 795 932 z "},"V":{"ha":1000,"x_min":68,"x_max":932,"o":"m 465 22 q 500 0 475 0 q 534 22 524 0 l 926 918 q 926 946 932 932 q 906 967 920 960 q 878 967 892 973 q 857 947 863 962 l 500 130 l 142 947 q 121 967 136 962 q 93 967 107 973 q 73 946 79 960 q 74 918 68 932 l 465 22 z "},"W":{"ha":1373,"x_min":68,"x_max":1305,"o":"m 465 22 q 500 0 475 0 l 500 0 q 534 22 524 0 l 682 363 l 839 22 q 873 0 849 0 l 873 0 q 907 22 897 0 l 1299 918 q 1299 946 1305 932 q 1279 967 1293 960 q 1251 967 1265 973 q 1230 947 1236 962 l 872 128 l 715 469 q 682 491 705 490 l 680 491 q 646 468 656 490 l 500 131 l 142 947 q 121 967 136 962 q 93 967 107 973 q 73 946 79 960 q 74 918 68 932 l 465 22 z "},"X":{"ha":903,"x_min":68,"x_max":836,"o":"m 498 485 l 826 910 q 833 937 836 922 q 819 962 831 953 q 792 970 807 972 q 767 956 777 968 l 452 546 l 136 956 q 111 970 127 968 q 83 962 96 972 q 70 937 71 953 q 77 910 68 922 l 404 485 l 77 60 q 70 33 68 48 q 83 7 71 17 q 106 0 94 0 q 136 14 125 0 l 452 424 l 767 14 q 797 0 779 0 q 819 7 809 0 q 833 33 831 17 q 826 60 836 48 l 498 485 z "},"Y":{"ha":924,"x_min":68,"x_max":857,"o":"m 425 362 l 425 37 q 436 11 425 22 q 463 0 447 0 q 489 11 477 0 q 500 37 500 22 l 500 362 l 848 913 q 853 941 857 926 q 837 964 850 956 q 808 969 823 972 q 785 953 793 966 l 463 443 l 140 953 q 116 969 131 966 q 88 964 101 972 q 71 941 75 956 q 77 913 68 926 l 425 362 z "},"Z":{"ha":876,"x_min":68,"x_max":808,"o":"m 764 0 q 791 11 780 0 q 802 37 802 22 q 791 64 802 53 q 764 75 780 75 l 185 75 l 795 911 q 798 949 808 929 q 764 970 787 970 l 112 970 q 85 959 96 970 q 75 932 75 948 q 85 906 75 917 q 112 895 96 895 l 691 895 l 81 59 q 79 20 68 41 q 112 0 89 0 l 764 0 z "},"[":{"ha":378,"x_min":68,"x_max":311,"o":"m 273 1068 q 299 1079 288 1068 q 311 1105 311 1090 q 299 1132 311 1121 q 273 1143 288 1143 l 105 1143 q 79 1132 90 1143 q 68 1105 68 1121 l 68 -125 q 79 -152 68 -141 q 105 -163 90 -163 l 273 -163 q 299 -152 288 -163 q 311 -125 311 -141 q 299 -99 311 -110 q 273 -88 288 -88 l 142 -88 l 142 1068 l 273 1068 z "},"]":{"ha":378,"x_min":68,"x_max":311,"o":"m 311 1105 q 299 1132 311 1121 q 273 1143 288 1143 l 105 1143 q 79 1132 90 1143 q 68 1105 68 1121 q 79 1079 68 1090 q 105 1068 90 1068 l 236 1068 l 236 -88 l 105 -88 q 79 -99 90 -88 q 68 -125 68 -110 q 79 -152 68 -141 q 105 -163 90 -163 l 273 -163 q 299 -152 288 -163 q 311 -125 311 -141 l 311 1105 z "},"_":{"ha":528,"x_min":68,"x_max":460,"o":"m 460 37 q 448 64 460 53 q 422 75 437 75 l 105 75 q 79 64 90 75 q 68 37 68 53 q 79 11 68 22 q 105 0 90 0 l 422 0 q 448 11 437 0 q 460 37 460 22 z "},"`":{"ha":210,"x_min":68,"x_max":142,"o":"m 105 821 q 132 831 121 821 q 142 858 142 842 l 142 932 q 132 959 142 948 q 105 970 121 970 q 79 959 90 970 q 68 932 68 948 l 68 858 q 79 831 68 842 q 105 821 90 821 z "},"a":{"ha":1000,"x_min":68,"x_max":932,"o":"m 296 373 l 500 840 l 704 373 l 296 373 m 534 947 q 500 970 524 970 q 465 947 475 970 l 74 52 q 73 24 68 38 q 93 3 79 9 q 108 0 100 0 q 142 22 132 0 l 264 300 q 276 298 270 298 l 724 298 q 736 300 730 298 l 857 22 q 878 3 863 8 q 906 3 892 -3 q 926 24 920 9 q 926 52 932 38 l 534 947 z "},"b":{"ha":863,"x_min":68,"x_max":795,"o":"m 142 448 l 534 448 q 666 393 611 448 q 721 261 721 338 q 666 130 721 184 q 534 75 611 75 l 142 75 l 142 448 m 142 895 l 460 895 q 591 841 536 895 q 646 709 646 786 q 591 577 646 631 q 460 522 536 522 l 142 522 l 142 895 m 534 0 q 719 77 642 0 q 795 261 795 153 q 747 412 795 345 q 624 506 700 478 q 721 709 721 585 q 644 893 721 817 q 460 970 568 970 l 105 970 q 79 959 90 970 q 68 932 68 948 l 68 37 q 79 11 68 22 q 105 0 90 0 l 534 0 z "},"c":{"ha":975,"x_min":68,"x_max":907,"o":"m 553 0 q 896 142 753 0 q 907 168 907 153 q 896 195 907 184 q 869 205 885 205 q 843 195 854 205 q 553 75 723 75 q 262 195 382 75 q 142 485 142 315 q 262 775 142 655 q 553 895 382 895 q 843 775 723 895 q 869 764 854 764 q 896 775 885 764 q 907 802 907 786 q 896 828 907 817 q 553 970 753 970 q 210 828 352 970 q 68 485 68 686 q 210 142 68 284 q 553 0 352 0 z "},"d":{"ha":882,"x_min":68,"x_max":814,"o":"m 142 895 l 329 895 q 619 775 498 895 q 739 485 739 654 q 619 195 739 315 q 329 75 498 75 l 142 75 l 142 895 m 329 0 q 672 142 530 0 q 814 485 814 284 q 672 828 814 686 q 329 970 530 970 l 105 970 q 79 959 90 970 q 68 932 68 948 l 68 37 q 79 11 68 22 q 105 0 90 0 l 329 0 z "},"e":{"ha":826,"x_min":68,"x_max":758,"o":"m 721 0 q 747 11 736 0 q 758 37 758 22 q 747 64 758 53 q 721 75 736 75 l 142 75 l 142 448 l 572 448 q 597 458 587 448 q 609 485 609 469 q 597 511 609 500 q 572 522 587 522 l 142 522 l 142 895 l 721 895 q 747 906 736 895 q 758 932 758 917 q 747 959 758 948 q 721 970 736 970 l 105 970 q 79 959 90 970 q 68 932 68 948 l 68 37 q 79 11 68 22 q 105 0 90 0 l 721 0 z "},"f":{"ha":826,"x_min":68,"x_max":758,"o":"m 105 0 q 132 11 121 0 q 142 37 142 22 l 142 448 l 572 448 q 597 458 587 448 q 609 485 609 469 q 597 511 609 500 q 572 522 587 522 l 142 522 l 142 895 l 721 895 q 747 906 736 895 q 758 932 758 917 q 747 959 758 948 q 721 970 736 970 l 105 970 q 79 959 90 970 q 68 932 68 948 l 68 37 q 79 11 68 22 q 105 0 90 0 z "},"g":{"ha":975,"x_min":68,"x_max":907,"o":"m 553 0 q 896 142 753 0 q 907 168 907 153 l 907 485 q 896 511 907 500 q 869 522 885 522 l 534 522 q 508 511 519 522 q 497 485 497 500 q 508 458 497 469 q 534 448 519 448 l 832 448 l 832 184 q 553 75 714 75 q 262 195 382 75 q 142 485 142 315 q 262 775 142 655 q 553 895 382 895 q 843 775 723 895 q 869 764 854 764 q 896 775 885 764 q 907 802 907 786 q 896 828 907 817 q 553 970 753 970 q 210 828 352 970 q 68 485 68 686 q 210 142 68 284 q 553 0 352 0 z "},"h":{"ha":863,"x_min":68,"x_max":795,"o":"m 105 0 q 132 11 121 0 q 142 37 142 22 l 142 448 l 721 448 l 721 37 q 732 11 721 22 q 758 0 743 0 q 785 11 773 0 q 795 37 795 22 l 795 932 q 785 959 795 948 q 758 970 773 970 q 732 959 743 970 q 721 932 721 948 l 721 522 l 142 522 l 142 932 q 132 959 142 948 q 105 970 121 970 q 79 959 90 970 q 68 932 68 948 l 68 37 q 79 11 68 22 q 105 0 90 0 z "},"i":{"ha":210,"x_min":68,"x_max":142,"o":"m 105 0 q 132 11 121 0 q 142 37 142 22 l 142 932 q 132 959 142 948 q 105 970 121 970 q 79 959 90 970 q 68 932 68 948 l 68 37 q 79 11 68 22 q 105 0 90 0 z "},"j":{"ha":528,"x_min":68,"x_max":460,"o":"m 105 0 q 355 104 252 0 q 460 355 460 208 l 460 932 q 448 959 460 948 q 422 970 437 970 q 396 959 407 970 q 385 932 385 948 l 385 355 q 303 157 385 239 q 105 75 221 75 q 79 64 90 75 q 68 37 68 53 q 79 11 68 22 q 105 0 90 0 z "},"k":{"ha":808,"x_min":68,"x_max":740,"o":"m 105 0 q 132 11 121 0 q 142 37 142 22 l 142 375 l 250 472 l 675 12 q 702 0 686 0 q 727 10 717 0 q 739 36 739 20 q 730 62 740 52 l 305 522 l 727 905 q 739 930 739 916 q 730 958 740 946 q 704 970 720 969 q 677 960 688 970 l 142 476 l 142 932 q 132 959 142 948 q 105 970 121 970 q 79 959 90 970 q 68 932 68 948 l 68 37 q 79 11 68 22 q 105 0 90 0 z "},"l":{"ha":844,"x_min":68,"x_max":777,"o":"m 739 0 q 766 11 755 0 q 777 37 777 22 q 766 64 777 53 q 739 75 755 75 l 142 75 l 142 932 q 132 959 142 948 q 105 970 121 970 q 79 959 90 970 q 68 932 68 948 l 68 37 q 79 11 68 22 q 105 0 90 0 l 739 0 z "},"m":{"ha":1031,"x_min":68,"x_max":963,"o":"m 105 0 q 132 11 121 0 q 142 37 142 22 l 142 816 l 485 333 q 515 317 496 317 q 546 333 534 317 l 888 816 l 888 37 q 899 11 888 22 q 926 0 910 0 q 952 11 941 0 q 963 37 963 22 l 963 932 q 937 968 963 960 q 895 954 911 977 l 515 419 l 136 954 q 94 968 120 977 q 68 932 68 960 l 68 37 q 79 11 68 22 q 105 0 90 0 z "},"n":{"ha":901,"x_min":68,"x_max":833,"o":"m 105 0 q 132 11 121 0 q 142 37 142 22 l 142 823 l 766 14 q 795 0 777 0 q 807 2 802 0 q 833 37 833 11 l 833 932 q 822 959 833 948 q 795 970 810 970 q 769 959 780 970 q 758 932 758 948 l 758 146 l 135 956 q 93 968 119 977 q 68 932 68 960 l 68 37 q 79 11 68 22 q 105 0 90 0 z "},"o":{"ha":1105,"x_min":68,"x_max":1038,"o":"m 553 75 q 262 195 383 75 q 142 485 142 315 q 262 775 142 654 q 553 895 383 895 q 843 775 722 895 q 963 485 963 654 q 843 195 963 315 q 553 75 722 75 m 553 970 q 210 828 352 970 q 68 485 68 686 q 210 142 68 284 q 553 0 352 0 q 896 142 753 0 q 1038 485 1038 284 q 896 828 1038 686 q 553 970 753 970 z "},"p":{"ha":826,"x_min":68,"x_max":758,"o":"m 142 895 l 452 895 q 615 827 547 895 q 684 663 684 760 q 615 499 684 568 q 452 431 547 431 l 142 431 l 142 895 m 142 357 l 452 357 q 668 447 578 357 q 758 663 758 536 q 668 880 758 790 q 452 970 578 970 l 105 970 q 79 959 90 970 q 68 932 68 948 l 68 37 q 79 11 68 22 q 105 0 90 0 q 132 11 121 0 q 142 37 142 22 l 142 357 z "},"q":{"ha":1105,"x_min":68,"x_max":1038,"o":"m 590 167 q 579 193 590 182 q 553 204 568 204 q 526 193 537 204 q 515 167 515 182 l 515 75 q 251 207 358 90 q 142 484 142 324 q 262 774 142 654 q 553 895 383 895 q 843 774 722 895 q 963 484 963 654 q 855 207 963 324 q 590 75 747 90 l 590 167 m 553 969 q 210 827 352 969 q 68 484 68 685 q 210 141 68 283 q 515 1 337 14 l 515 -94 q 526 -121 515 -110 q 553 -132 537 -132 q 579 -121 568 -132 q 590 -94 590 -110 l 590 1 q 896 141 768 14 q 1038 484 1038 283 q 896 827 1038 685 q 553 969 753 969 z "},"r":{"ha":835,"x_min":68,"x_max":767,"o":"m 142 895 l 450 895 q 614 827 545 895 q 682 663 682 760 q 614 499 682 568 q 450 431 545 431 l 142 431 l 142 895 m 105 0 q 132 11 121 0 q 142 37 142 22 l 142 357 l 384 357 l 702 12 q 729 0 713 0 q 755 10 744 0 q 766 36 766 20 q 757 62 767 52 l 484 359 q 677 458 599 372 q 756 663 756 546 q 666 880 756 790 q 450 970 576 970 l 105 970 q 79 959 90 970 q 68 932 68 948 l 68 37 q 79 11 68 22 q 105 0 90 0 z "},"s":{"ha":836,"x_min":68,"x_max":768,"o":"m 329 75 q 197 130 252 75 q 142 261 142 184 q 132 288 142 277 q 105 298 121 298 q 79 288 90 298 q 68 261 68 277 q 144 77 68 153 q 329 0 221 0 l 507 0 q 691 77 615 0 q 768 261 768 153 q 691 446 768 369 q 507 522 615 522 l 329 522 q 197 577 252 522 q 142 709 142 631 q 197 841 142 786 q 329 895 252 895 l 507 895 q 639 841 584 895 q 693 709 693 786 q 704 682 693 693 q 730 671 715 671 q 757 682 746 671 q 768 709 768 693 q 691 893 768 817 q 507 970 615 970 l 329 970 q 144 893 221 970 q 68 709 68 817 q 144 524 68 601 q 329 448 221 448 l 507 448 q 639 393 584 448 q 693 261 693 338 q 639 130 693 184 q 507 75 584 75 l 329 75 z "},"t":{"ha":901,"x_min":68,"x_max":833,"o":"m 413 895 l 413 37 q 424 11 413 22 q 450 0 435 0 q 477 11 466 0 q 488 37 488 22 l 488 895 l 795 895 q 822 906 810 895 q 833 932 833 917 q 822 959 833 948 q 795 970 810 970 l 105 970 q 79 959 90 970 q 68 932 68 948 q 79 906 68 917 q 105 895 90 895 l 413 895 z "},"u":{"ha":863,"x_min":68,"x_max":795,"o":"m 795 932 q 785 959 795 948 q 758 970 773 970 q 732 959 743 970 q 721 932 721 948 l 721 363 q 636 159 721 244 q 431 75 551 75 q 227 159 312 75 q 142 363 142 244 l 142 932 q 132 959 142 948 q 105 970 121 970 q 79 959 90 970 q 68 932 68 948 l 68 363 q 174 106 68 214 q 431 0 281 0 q 688 106 582 0 q 795 363 795 214 l 795 932 z "},"v":{"ha":1000,"x_min":68,"x_max":932,"o":"m 465 22 q 500 0 475 0 q 534 22 524 0 l 926 918 q 926 946 932 932 q 906 967 920 960 q 878 967 892 973 q 857 947 863 962 l 500 130 l 142 947 q 121 967 136 962 q 93 967 107 973 q 73 946 79 960 q 74 918 68 932 l 465 22 z "},"w":{"ha":1373,"x_min":68,"x_max":1305,"o":"m 465 22 q 500 0 475 0 l 500 0 q 534 22 524 0 l 682 363 l 839 22 q 873 0 849 0 l 873 0 q 907 22 897 0 l 1299 918 q 1299 946 1305 932 q 1279 967 1293 960 q 1251 967 1265 973 q 1230 947 1236 962 l 872 128 l 715 469 q 682 491 705 490 l 680 491 q 646 468 656 490 l 500 131 l 142 947 q 121 967 136 962 q 93 967 107 973 q 73 946 79 960 q 74 918 68 932 l 465 22 z "},"x":{"ha":903,"x_min":68,"x_max":836,"o":"m 498 485 l 826 910 q 833 937 836 922 q 819 962 831 953 q 792 970 807 972 q 767 956 777 968 l 452 546 l 136 956 q 111 970 127 968 q 83 962 96 972 q 70 937 71 953 q 77 910 68 922 l 404 485 l 77 60 q 70 33 68 48 q 83 7 71 17 q 106 0 94 0 q 136 14 125 0 l 452 424 l 767 14 q 797 0 779 0 q 819 7 809 0 q 833 33 831 17 q 826 60 836 48 l 498 485 z "},"y":{"ha":924,"x_min":68,"x_max":857,"o":"m 425 362 l 425 37 q 436 11 425 22 q 463 0 447 0 q 489 11 477 0 q 500 37 500 22 l 500 362 l 848 913 q 853 941 857 926 q 837 964 850 956 q 808 969 823 972 q 785 953 793 966 l 463 443 l 140 953 q 116 969 131 966 q 88 964 101 972 q 71 941 75 956 q 77 913 68 926 l 425 362 z "},"z":{"ha":876,"x_min":68,"x_max":808,"o":"m 764 0 q 791 11 780 0 q 802 37 802 22 q 791 64 802 53 q 764 75 780 75 l 185 75 l 795 911 q 798 949 808 929 q 764 970 787 970 l 112 970 q 85 959 96 970 q 75 932 75 948 q 85 906 75 917 q 112 895 96 895 l 691 895 l 81 59 q 79 20 68 41 q 112 0 89 0 l 764 0 z "},"©":{"ha":732,"x_min":68,"x_max":665,"o":"m 366 264 q 208 330 274 264 q 142 488 142 396 q 208 646 142 581 q 366 712 274 712 q 524 646 459 712 q 590 488 590 581 q 524 330 590 396 q 366 264 459 264 m 366 787 q 155 699 243 787 q 68 488 68 612 q 155 277 68 365 q 366 190 243 190 q 577 277 490 190 q 665 488 665 365 q 577 699 665 612 q 366 787 490 787 m 427 543 q 454 532 438 532 q 480 543 469 532 q 491 570 491 554 q 480 596 491 585 q 372 640 435 640 q 264 596 309 640 q 220 488 220 551 q 264 380 220 425 q 372 336 309 336 q 480 380 435 336 q 491 407 491 391 q 480 433 491 422 q 454 444 469 444 q 427 433 438 444 q 372 411 405 411 q 317 433 340 411 q 295 488 295 456 q 317 543 295 520 q 372 566 340 566 q 427 543 405 566 z "},"´":{"ha":210,"x_min":68,"x_max":142,"o":"m 105 821 q 132 831 121 821 q 142 858 142 842 l 142 932 q 132 959 142 948 q 105 970 121 970 q 79 959 90 970 q 68 932 68 948 l 68 858 q 79 831 68 842 q 105 821 90 821 z "},"À":{"ha":1000,"x_min":68,"x_max":932,"o":"m 296 373 l 500 840 l 704 373 l 296 373 m 534 947 q 500 970 524 970 q 465 947 475 970 l 74 52 q 73 24 68 38 q 93 3 79 9 q 108 0 100 0 q 142 22 132 0 l 264 300 q 276 298 270 298 l 724 298 q 736 300 730 298 l 857 22 q 878 3 863 8 q 906 3 892 -3 q 926 24 920 9 q 926 52 932 38 l 534 947 m 454 1161 q 444 1135 444 1150 q 454 1108 444 1119 l 507 1055 q 534 1044 518 1044 q 560 1055 549 1044 q 571 1082 571 1067 q 560 1108 571 1097 l 507 1161 q 481 1172 496 1172 q 454 1161 465 1172 z "},"Á":{"ha":1000,"x_min":68,"x_max":932,"o":"m 296 373 l 500 840 l 704 373 l 296 373 m 534 947 q 500 970 524 970 q 465 947 475 970 l 74 52 q 73 24 68 38 q 93 3 79 9 q 108 0 100 0 q 142 22 132 0 l 264 300 q 276 298 270 298 l 724 298 q 736 300 730 298 l 857 22 q 878 3 863 8 q 906 3 892 -3 q 926 24 920 9 q 926 52 932 38 l 534 947 m 454 1108 q 444 1082 444 1097 q 454 1055 444 1067 q 481 1044 465 1044 q 507 1055 496 1044 l 560 1108 q 571 1135 571 1119 q 560 1161 571 1150 q 534 1172 549 1172 q 507 1161 518 1172 l 454 1108 z "},"Â":{"ha":1000,"x_min":68,"x_max":932,"o":"m 296 373 l 500 840 l 704 373 l 296 373 m 534 947 q 500 970 524 970 q 465 947 475 970 l 74 52 q 73 24 68 38 q 93 3 79 9 q 108 0 100 0 q 142 22 132 0 l 264 300 q 276 298 270 298 l 724 298 q 736 300 730 298 l 857 22 q 878 3 863 8 q 906 3 892 -3 q 926 24 920 9 q 926 52 932 38 l 534 947 m 522 1162 q 495 1172 510 1173 q 470 1161 481 1172 l 417 1108 q 406 1082 406 1097 q 417 1055 406 1067 q 444 1044 428 1044 q 470 1055 459 1044 l 498 1084 l 531 1054 q 555 1044 541 1044 q 583 1057 572 1044 q 593 1084 593 1069 q 581 1109 592 1099 l 522 1162 z "},"Ã":{"ha":1000,"x_min":68,"x_max":932,"o":"m 296 373 l 500 840 l 704 373 l 296 373 m 906 3 q 926 24 920 9 q 926 52 932 38 l 534 947 q 500 970 524 970 q 465 947 475 970 l 74 52 q 73 24 68 38 q 93 3 79 9 q 108 0 100 0 q 142 22 132 0 l 264 300 q 276 298 270 298 l 724 298 q 736 300 730 298 l 857 22 q 878 3 863 8 q 906 3 892 -3 m 585 1152 q 559 1130 568 1135 q 540 1125 549 1124 q 520 1137 534 1126 q 515 1142 517 1141 q 425 1162 471 1177 q 381 1133 404 1154 q 369 1107 370 1122 q 379 1080 369 1091 q 406 1068 390 1069 q 432 1078 420 1068 q 450 1091 443 1089 q 468 1084 456 1093 q 473 1080 469 1083 q 529 1051 503 1055 q 543 1050 536 1050 q 597 1065 570 1050 q 637 1098 614 1075 q 648 1124 648 1109 q 638 1150 649 1139 q 612 1162 627 1162 q 585 1152 596 1162 z "},"Ä":{"ha":1000,"x_min":68,"x_max":932,"o":"m 537 1101 q 548 1074 537 1085 q 574 1063 559 1063 q 601 1074 590 1063 q 612 1101 612 1085 q 601 1127 612 1116 q 574 1138 590 1138 q 548 1127 559 1138 q 537 1101 537 1116 m 425 1138 q 399 1127 410 1138 q 388 1101 388 1116 q 399 1074 388 1085 q 425 1063 410 1063 q 452 1074 441 1063 q 463 1101 463 1085 q 452 1127 463 1116 q 425 1138 441 1138 m 296 373 l 500 840 l 704 373 l 296 373 m 534 947 q 500 970 524 970 q 465 947 475 970 l 74 52 q 73 24 68 38 q 93 3 79 9 q 108 0 100 0 q 142 22 132 0 l 264 300 q 276 298 270 298 l 724 298 q 736 300 730 298 l 857 22 q 878 3 863 8 q 906 3 892 -3 q 926 24 920 9 q 926 52 932 38 l 534 947 z "},"Å":{"ha":1000,"x_min":68,"x_max":932,"o":"m 296 373 l 500 840 l 704 373 l 296 373 m 500 1054 q 519 1046 511 1054 q 528 1026 528 1038 q 519 1006 528 1015 q 500 998 511 998 q 480 1006 488 998 q 471 1026 471 1015 q 480 1046 471 1038 q 500 1054 488 1054 m 534 947 q 533 949 534 948 q 584 1026 584 971 q 559 1085 584 1061 q 500 1110 534 1110 q 440 1085 465 1110 q 416 1026 416 1061 q 466 949 416 971 l 465 947 l 74 52 q 73 24 68 38 q 93 3 79 9 q 108 0 100 0 q 142 22 132 0 l 264 300 q 276 298 270 298 l 724 298 q 736 300 730 298 l 857 22 q 878 3 863 8 q 906 3 892 -3 q 926 24 920 9 q 926 52 932 38 l 534 947 z "},"Æ":{"ha":1202,"x_min":68,"x_max":1134,"o":"m 296 373 l 497 833 l 669 373 l 296 373 m 1097 0 q 1123 11 1112 0 q 1134 37 1134 22 q 1123 64 1134 53 q 1097 75 1112 75 l 861 75 l 722 448 l 1097 448 q 1123 458 1112 448 q 1134 485 1134 469 q 1123 511 1134 500 q 1097 522 1112 522 l 693 522 l 553 895 l 1097 895 q 1123 906 1112 895 q 1134 932 1134 917 q 1123 959 1134 948 q 1097 970 1112 970 l 499 970 q 496 970 498 970 l 496 970 q 489 968 492 969 l 488 968 q 486 967 487 968 q 485 967 484 966 q 479 964 482 966 q 478 963 479 964 q 476 962 477 962 q 475 961 475 961 q 471 956 473 959 q 471 956 471 956 q 469 954 470 955 q 469 953 469 954 q 467 951 468 952 q 467 950 467 949 q 465 947 466 949 l 465 947 l 465 947 l 204 351 q 204 350 204 351 l 74 52 q 73 24 68 38 q 93 3 79 9 q 108 0 100 0 q 142 22 132 0 l 263 298 l 698 298 l 800 24 q 836 0 810 0 l 1097 0 z "},"Ç":{"ha":975,"x_min":68,"x_max":907,"o":"m 843 774 q 869 763 854 763 q 896 774 885 763 q 907 800 907 785 q 896 827 907 816 q 553 969 753 969 q 210 827 352 969 q 68 484 68 685 q 210 141 68 283 q 478 5 322 28 l 478 -57 q 489 -83 478 -73 q 515 -94 500 -94 q 542 -83 531 -94 q 553 -57 553 -73 l 553 -1 q 896 141 753 -1 q 907 168 907 152 q 896 194 907 183 q 869 205 885 205 q 843 194 854 205 q 553 74 723 74 q 262 194 382 74 q 142 484 142 314 q 262 774 142 654 q 553 894 382 894 q 843 774 723 894 z "},"È":{"ha":826,"x_min":68,"x_max":758,"o":"m 721 895 q 747 906 736 895 q 758 932 758 917 q 747 959 758 948 q 721 970 736 970 l 105 970 q 79 959 90 970 q 68 932 68 948 l 68 37 q 79 11 68 22 q 105 0 90 0 l 721 0 q 747 11 736 0 q 758 37 758 22 q 747 64 758 53 q 721 75 736 75 l 142 75 l 142 448 l 572 448 q 597 458 587 448 q 609 485 609 469 q 597 511 609 500 q 572 522 587 522 l 142 522 l 142 895 l 721 895 m 360 1161 q 349 1135 349 1150 q 360 1108 349 1119 l 413 1055 q 439 1044 424 1044 q 466 1055 454 1044 q 477 1082 477 1066 q 466 1108 477 1097 l 413 1161 q 387 1172 402 1172 q 360 1161 371 1172 z "},"É":{"ha":826,"x_min":68,"x_max":758,"o":"m 721 895 q 747 906 736 895 q 758 932 758 917 q 747 959 758 948 q 721 970 736 970 l 105 970 q 79 959 90 970 q 68 932 68 948 l 68 37 q 79 11 68 22 q 105 0 90 0 l 721 0 q 747 11 736 0 q 758 37 758 22 q 747 64 758 53 q 721 75 736 75 l 142 75 l 142 448 l 572 448 q 597 458 587 448 q 609 485 609 469 q 597 511 609 500 q 572 522 587 522 l 142 522 l 142 895 l 721 895 m 360 1055 q 387 1044 371 1044 q 413 1055 402 1044 l 466 1108 q 477 1135 477 1119 q 466 1161 477 1150 q 439 1172 454 1172 q 413 1161 424 1172 l 360 1108 q 349 1082 349 1097 q 360 1055 349 1066 z "},"Ê":{"ha":826,"x_min":68,"x_max":758,"o":"m 721 895 q 747 906 736 895 q 758 932 758 917 q 747 959 758 948 q 721 970 736 970 l 105 970 q 79 959 90 970 q 68 932 68 948 l 68 37 q 79 11 68 22 q 105 0 90 0 l 721 0 q 747 11 736 0 q 758 37 758 22 q 747 64 758 53 q 721 75 736 75 l 142 75 l 142 448 l 572 448 q 597 458 587 448 q 609 485 609 469 q 597 511 609 500 q 572 522 587 522 l 142 522 l 142 895 l 721 895 m 435 1162 q 409 1172 423 1173 q 383 1161 394 1171 l 330 1108 q 319 1082 319 1097 q 330 1055 319 1066 q 357 1044 342 1044 q 383 1055 372 1044 l 411 1083 l 444 1054 q 469 1044 454 1044 q 496 1057 486 1044 q 506 1084 507 1069 q 494 1109 505 1099 l 435 1162 z "},"Ë":{"ha":826,"x_min":68,"x_max":758,"o":"m 721 895 q 747 906 736 895 q 758 932 758 917 q 747 959 758 948 q 721 970 736 970 l 105 970 q 79 959 90 970 q 68 932 68 948 l 68 37 q 79 11 68 22 q 105 0 90 0 l 721 0 q 747 11 736 0 q 758 37 758 22 q 747 64 758 53 q 721 75 736 75 l 142 75 l 142 448 l 572 448 q 597 458 587 448 q 609 485 609 469 q 597 511 609 500 q 572 522 587 522 l 142 522 l 142 895 l 721 895 m 514 1074 q 525 1101 525 1085 q 514 1127 525 1116 q 488 1138 503 1138 q 461 1127 472 1138 q 450 1101 450 1116 q 461 1074 450 1085 q 488 1063 472 1063 q 514 1074 503 1063 m 301 1101 q 312 1074 301 1085 q 338 1063 323 1063 q 365 1074 354 1063 q 376 1101 376 1085 q 365 1127 376 1116 q 338 1138 354 1138 q 312 1127 323 1138 q 301 1101 301 1116 z "},"Ì":{"ha":263,"x_min":68,"x_max":195,"o":"m 132 970 q 105 959 116 970 q 94 932 94 948 l 94 37 q 105 11 94 22 q 132 0 116 0 q 158 11 147 0 q 169 37 169 22 l 169 932 q 158 959 169 948 q 132 970 147 970 m 132 1161 q 105 1172 121 1172 q 79 1161 90 1172 q 68 1135 68 1150 q 79 1108 68 1119 l 132 1055 q 158 1044 142 1044 q 184 1055 174 1044 q 195 1082 195 1066 q 184 1108 195 1097 l 132 1161 z "},"Í":{"ha":263,"x_min":68,"x_max":195,"o":"m 132 970 q 105 959 116 970 q 94 932 94 948 l 94 37 q 105 11 94 22 q 132 0 116 0 q 158 11 147 0 q 169 37 169 22 l 169 932 q 158 959 169 948 q 132 970 147 970 m 79 1108 q 68 1082 68 1097 q 79 1055 68 1066 q 105 1044 90 1044 q 132 1055 121 1044 l 184 1108 q 195 1135 195 1119 q 184 1161 195 1150 q 158 1172 174 1172 q 132 1161 142 1172 l 79 1108 z "},"Î":{"ha":323,"x_min":68,"x_max":255,"o":"m 161 970 q 135 959 146 970 q 124 932 124 948 l 124 37 q 135 11 124 22 q 161 0 146 0 q 187 11 176 0 q 199 37 199 22 l 199 932 q 187 959 199 948 q 161 970 176 970 m 182 1162 q 157 1172 172 1173 q 132 1161 142 1171 l 79 1108 q 68 1082 68 1097 q 79 1055 68 1066 q 105 1044 90 1044 q 132 1055 121 1044 l 159 1083 l 192 1054 q 217 1044 203 1044 q 245 1057 234 1044 q 254 1084 255 1069 q 242 1109 254 1099 l 182 1162 z "},"Ï":{"ha":359,"x_min":68,"x_max":292,"o":"m 180 970 q 153 959 164 970 q 142 932 142 948 l 142 37 q 153 11 142 22 q 180 0 164 0 q 206 11 195 0 q 217 37 217 22 l 217 932 q 206 959 217 948 q 180 970 195 970 m 254 1138 q 228 1127 239 1138 q 217 1101 217 1116 q 228 1074 217 1085 q 254 1063 239 1063 q 281 1074 270 1063 q 292 1101 292 1085 q 281 1127 292 1116 q 254 1138 270 1138 m 132 1127 q 105 1138 121 1138 q 79 1127 90 1138 q 68 1101 68 1116 q 79 1074 68 1085 q 105 1063 90 1063 q 132 1074 121 1063 q 142 1101 142 1085 q 132 1127 142 1116 z "},"Ð":{"ha":975,"x_min":68,"x_max":907,"o":"m 236 75 l 236 448 l 385 448 q 411 458 400 448 q 422 485 422 469 q 411 511 422 500 q 385 522 400 522 l 236 522 l 236 895 l 422 895 q 712 775 592 895 q 833 485 833 654 q 712 195 833 315 q 422 75 592 75 l 236 75 m 199 970 q 172 959 183 970 q 161 932 161 948 l 161 522 l 105 522 q 79 511 90 522 q 68 485 68 500 q 79 458 68 469 q 105 448 90 448 l 161 448 l 161 37 q 172 11 161 22 q 199 0 183 0 l 422 0 q 765 142 623 0 q 907 485 907 284 q 765 828 907 686 q 422 970 623 970 l 199 970 z "},"Ñ":{"ha":901,"x_min":68,"x_max":833,"o":"m 527 1151 q 501 1130 510 1135 q 481 1125 490 1124 q 461 1137 475 1126 q 456 1142 458 1140 q 367 1162 412 1177 q 322 1133 345 1154 q 311 1107 311 1122 q 321 1080 310 1091 q 347 1068 331 1069 q 373 1078 362 1068 q 391 1091 385 1089 q 409 1084 397 1093 q 414 1080 410 1082 q 470 1051 444 1055 q 484 1050 477 1050 q 538 1065 512 1050 q 578 1098 555 1075 q 590 1124 590 1108 q 579 1150 590 1139 q 553 1162 568 1162 q 527 1151 538 1162 m 795 970 q 769 959 780 970 q 758 932 758 948 l 758 146 l 135 956 q 93 968 119 977 q 68 932 68 960 l 68 37 q 79 11 68 22 q 105 0 90 0 q 132 11 121 0 q 142 37 142 22 l 142 823 l 766 14 q 795 0 777 0 q 807 2 802 0 q 833 37 833 11 l 833 932 q 822 959 833 948 q 795 970 810 970 z "},"Ò":{"ha":1105,"x_min":68,"x_max":1038,"o":"m 553 75 q 262 195 383 75 q 142 485 142 315 q 262 775 142 654 q 553 895 383 895 q 843 775 722 895 q 963 485 963 654 q 843 195 963 315 q 553 75 722 75 m 553 970 q 210 828 352 970 q 68 485 68 686 q 210 142 68 284 q 553 0 352 0 q 896 142 753 0 q 1038 485 1038 284 q 896 828 1038 686 q 553 970 753 970 m 500 1161 q 489 1135 489 1150 q 500 1108 489 1119 l 553 1055 q 579 1044 564 1044 q 606 1055 595 1044 q 616 1082 616 1066 q 606 1108 616 1097 l 553 1161 q 526 1172 542 1172 q 500 1161 511 1172 z "},"Ó":{"ha":1105,"x_min":68,"x_max":1038,"o":"m 553 75 q 262 195 383 75 q 142 485 142 315 q 262 775 142 654 q 553 895 383 895 q 843 775 722 895 q 963 485 963 654 q 843 195 963 315 q 553 75 722 75 m 553 970 q 210 828 352 970 q 68 485 68 686 q 210 142 68 284 q 553 0 352 0 q 896 142 753 0 q 1038 485 1038 284 q 896 828 1038 686 q 553 970 753 970 m 500 1055 q 526 1044 511 1044 q 553 1055 542 1044 l 606 1108 q 616 1135 616 1119 q 606 1161 616 1150 q 579 1172 595 1172 q 553 1161 564 1172 l 500 1108 q 489 1082 489 1097 q 500 1055 489 1066 z "},"Ô":{"ha":1105,"x_min":68,"x_max":1038,"o":"m 553 75 q 262 195 383 75 q 142 485 142 315 q 262 775 142 654 q 553 895 383 895 q 843 775 722 895 q 963 485 963 654 q 843 195 963 315 q 553 75 722 75 m 553 970 q 210 828 352 970 q 68 485 68 686 q 210 142 68 284 q 553 0 352 0 q 896 142 753 0 q 1038 485 1038 284 q 896 828 1038 686 q 553 970 753 970 m 551 1083 l 584 1054 q 609 1044 595 1044 q 637 1057 625 1044 q 646 1084 647 1069 q 633 1109 645 1099 l 574 1162 q 549 1172 564 1173 q 523 1161 534 1171 l 471 1108 q 460 1082 460 1097 q 471 1055 460 1066 q 497 1044 481 1044 q 523 1055 512 1044 l 551 1083 z "},"Õ":{"ha":1105,"x_min":68,"x_max":1038,"o":"m 553 75 q 262 195 383 75 q 142 485 142 315 q 262 775 142 654 q 553 895 383 895 q 843 775 722 895 q 963 485 963 654 q 843 195 963 315 q 553 75 722 75 m 553 970 q 210 828 352 970 q 68 485 68 686 q 210 142 68 284 q 553 0 352 0 q 896 142 753 0 q 1038 485 1038 284 q 896 828 1038 686 q 553 970 753 970 m 476 1078 q 494 1091 487 1089 q 511 1084 500 1093 q 516 1080 513 1083 q 573 1051 547 1055 q 586 1050 579 1050 q 641 1065 614 1050 q 681 1098 658 1075 q 692 1124 692 1108 q 682 1150 692 1139 q 656 1162 671 1162 q 629 1151 640 1162 q 604 1130 612 1135 q 584 1125 593 1124 q 564 1137 578 1126 q 558 1142 560 1141 q 469 1162 515 1177 q 425 1133 448 1154 q 413 1107 414 1122 q 423 1080 412 1091 q 449 1068 434 1069 q 476 1078 465 1068 z "},"Ö":{"ha":1105,"x_min":68,"x_max":1038,"o":"m 553 75 q 262 195 383 75 q 142 485 142 315 q 262 775 142 654 q 553 895 383 895 q 843 775 722 895 q 963 485 963 654 q 843 195 963 315 q 553 75 722 75 m 553 970 q 210 828 352 970 q 68 485 68 686 q 210 142 68 284 q 553 0 352 0 q 896 142 753 0 q 1038 485 1038 284 q 896 828 1038 686 q 553 970 753 970 m 654 1074 q 665 1101 665 1085 q 654 1127 665 1116 q 627 1138 643 1138 q 601 1127 612 1138 q 590 1101 590 1116 q 601 1074 590 1085 q 627 1063 612 1063 q 654 1074 643 1063 m 452 1074 q 478 1063 463 1063 q 505 1074 494 1063 q 515 1101 515 1085 q 505 1127 515 1116 q 478 1138 494 1138 q 452 1127 463 1138 q 441 1101 441 1116 q 452 1074 441 1085 z "},"×":{"ha":435,"x_min":68,"x_max":367,"o":"m 330 332 q 356 343 345 332 q 367 370 367 354 q 356 396 367 385 l 270 481 l 356 568 q 367 594 367 578 q 356 621 367 609 q 330 631 345 631 q 303 621 314 631 l 217 534 l 132 621 q 105 631 121 631 q 79 621 90 631 q 68 594 68 609 q 79 568 68 578 l 165 481 l 79 396 q 68 370 68 385 q 79 343 68 354 q 105 332 90 332 q 132 343 121 332 l 217 429 l 303 343 q 330 332 314 332 z "},"Ø":{"ha":1105,"x_min":68,"x_max":1038,"o":"m 963 485 q 843 195 963 315 q 553 75 722 75 q 290 170 404 75 l 868 747 q 963 485 963 633 m 142 485 q 262 775 142 654 q 553 895 383 895 q 815 800 701 895 l 237 222 q 142 485 142 336 m 1027 959 q 1000 970 1016 970 q 974 959 985 970 l 868 853 q 553 970 732 970 q 210 828 352 970 q 68 485 68 686 q 184 170 68 305 l 79 64 q 68 37 68 53 q 79 11 68 22 q 105 0 90 0 q 132 11 121 0 l 237 117 q 553 0 373 0 q 896 142 753 0 q 1038 485 1038 284 q 921 800 1038 665 l 1027 906 q 1038 932 1038 917 q 1027 959 1038 948 z "},"Ù":{"ha":863,"x_min":68,"x_max":795,"o":"m 458 1048 q 484 1059 473 1048 q 495 1085 495 1069 q 484 1112 495 1101 l 431 1164 q 405 1175 420 1175 q 379 1164 390 1175 q 368 1138 368 1153 q 379 1112 368 1122 l 431 1059 q 458 1048 442 1048 m 758 970 q 732 959 743 970 q 721 932 721 948 l 721 363 q 636 159 721 244 q 431 75 551 75 q 227 159 312 75 q 142 363 142 244 l 142 932 q 132 959 142 948 q 105 970 121 970 q 79 959 90 970 q 68 932 68 948 l 68 363 q 174 106 68 214 q 431 0 281 0 q 688 106 582 0 q 795 363 795 214 l 795 932 q 785 959 795 948 q 758 970 773 970 z "},"Ú":{"ha":863,"x_min":68,"x_max":795,"o":"m 484 1112 q 495 1138 495 1122 q 484 1164 495 1153 q 458 1175 473 1175 q 431 1164 442 1175 l 379 1112 q 368 1085 368 1101 q 379 1059 368 1069 q 405 1048 390 1048 q 431 1059 420 1048 l 484 1112 m 758 970 q 732 959 743 970 q 721 932 721 948 l 721 363 q 636 159 721 244 q 431 75 551 75 q 227 159 312 75 q 142 363 142 244 l 142 932 q 132 959 142 948 q 105 970 121 970 q 79 959 90 970 q 68 932 68 948 l 68 363 q 174 106 68 214 q 431 0 281 0 q 688 106 582 0 q 795 363 795 214 l 795 932 q 785 959 795 948 q 758 970 773 970 z "},"Û":{"ha":863,"x_min":68,"x_max":795,"o":"m 430 1086 l 463 1057 q 488 1048 473 1048 q 515 1060 504 1048 q 525 1087 526 1072 q 512 1113 524 1103 l 453 1166 q 427 1175 442 1175 q 402 1164 412 1175 l 349 1112 q 338 1085 338 1101 q 349 1059 338 1069 q 376 1048 360 1048 q 402 1059 391 1048 l 430 1086 m 758 970 q 732 959 743 970 q 721 932 721 948 l 721 363 q 636 159 721 244 q 431 75 551 75 q 227 159 312 75 q 142 363 142 244 l 142 932 q 132 959 142 948 q 105 970 121 970 q 79 959 90 970 q 68 932 68 948 l 68 363 q 174 106 68 214 q 431 0 281 0 q 688 106 582 0 q 795 363 795 214 l 795 932 q 785 959 795 948 q 758 970 773 970 z "},"Ü":{"ha":863,"x_min":68,"x_max":795,"o":"m 532 1078 q 543 1103 543 1088 q 532 1130 543 1119 q 506 1141 522 1141 q 479 1130 491 1141 q 469 1103 469 1119 q 479 1078 469 1088 q 506 1066 491 1066 q 532 1078 522 1066 m 383 1078 q 394 1103 394 1088 q 383 1130 394 1119 q 357 1141 372 1141 q 330 1130 342 1141 q 319 1103 319 1119 q 330 1078 319 1088 q 357 1066 342 1066 q 383 1078 372 1066 m 758 970 q 732 959 743 970 q 721 932 721 948 l 721 363 q 636 159 721 244 q 431 75 551 75 q 227 159 312 75 q 142 363 142 244 l 142 932 q 132 959 142 948 q 105 970 121 970 q 79 959 90 970 q 68 932 68 948 l 68 363 q 174 106 68 214 q 431 0 281 0 q 688 106 582 0 q 795 363 795 214 l 795 932 q 785 959 795 948 q 758 970 773 970 z "},"Ý":{"ha":924,"x_min":68,"x_max":857,"o":"m 515 1112 q 526 1138 526 1122 q 515 1164 526 1153 q 489 1175 504 1175 q 463 1164 473 1175 l 410 1112 q 399 1085 399 1101 q 410 1059 399 1069 q 436 1048 420 1048 q 463 1059 452 1048 l 515 1112 m 837 964 q 808 969 823 972 q 785 953 793 966 l 463 443 l 140 953 q 116 969 131 966 q 88 964 101 972 q 71 941 75 956 q 77 913 68 926 l 425 362 l 425 37 q 436 11 425 22 q 463 0 447 0 q 489 11 477 0 q 500 37 500 22 l 500 362 l 848 913 q 853 941 857 926 q 837 964 850 956 z "},"Þ":{"ha":677,"x_min":68,"x_max":609,"o":"m 142 277 l 142 692 l 327 692 q 473 631 412 692 q 534 485 534 571 q 473 338 534 399 q 327 277 412 277 l 142 277 m 142 767 l 142 932 q 132 959 142 948 q 105 970 121 970 q 79 959 90 970 q 68 932 68 948 l 68 37 q 79 11 68 22 q 105 0 90 0 q 132 11 121 0 q 142 37 142 22 l 142 203 l 327 203 q 526 286 444 203 q 609 485 609 368 q 526 684 609 602 q 327 767 444 767 l 142 767 z "},"ß":{"ha":751,"x_min":68,"x_max":684,"o":"m 684 709 q 607 893 684 817 q 422 970 530 970 l 329 970 q 144 893 221 970 q 68 709 68 817 l 68 37 q 79 11 68 22 q 105 0 90 0 q 132 11 121 0 q 142 37 142 22 l 142 709 q 197 841 142 786 q 329 895 252 895 l 422 895 q 554 841 499 895 q 609 709 609 786 q 554 577 609 631 q 422 522 499 522 l 329 522 q 302 511 313 522 q 292 485 292 500 q 302 458 292 469 q 329 448 313 448 l 422 448 q 554 393 499 448 q 609 261 609 338 q 554 130 609 184 q 422 75 499 75 l 329 75 q 302 64 313 75 q 292 37 292 53 q 302 11 292 22 q 329 0 313 0 l 422 0 q 607 77 530 0 q 684 261 684 153 q 557 485 684 408 q 648 578 614 520 q 684 709 684 639 z "},"à":{"ha":1000,"x_min":68,"x_max":932,"o":"m 296 373 l 500 840 l 704 373 l 296 373 m 534 947 q 500 970 524 970 q 465 947 475 970 l 74 52 q 73 24 68 38 q 93 3 79 9 q 108 0 100 0 q 142 22 132 0 l 264 300 q 276 298 270 298 l 724 298 q 736 300 730 298 l 857 22 q 878 3 863 8 q 906 3 892 -3 q 926 24 920 9 q 926 52 932 38 l 534 947 m 454 1161 q 444 1135 444 1150 q 454 1108 444 1119 l 507 1055 q 534 1044 518 1044 q 560 1055 549 1044 q 571 1082 571 1067 q 560 1108 571 1097 l 507 1161 q 481 1172 496 1172 q 454 1161 465 1172 z "},"á":{"ha":1000,"x_min":68,"x_max":932,"o":"m 296 373 l 500 840 l 704 373 l 296 373 m 534 947 q 500 970 524 970 q 465 947 475 970 l 74 52 q 73 24 68 38 q 93 3 79 9 q 108 0 100 0 q 142 22 132 0 l 264 300 q 276 298 270 298 l 724 298 q 736 300 730 298 l 857 22 q 878 3 863 8 q 906 3 892 -3 q 926 24 920 9 q 926 52 932 38 l 534 947 m 454 1108 q 444 1082 444 1097 q 454 1055 444 1067 q 481 1044 465 1044 q 507 1055 496 1044 l 560 1108 q 571 1135 571 1119 q 560 1161 571 1150 q 534 1172 549 1172 q 507 1161 518 1172 l 454 1108 z "},"â":{"ha":1000,"x_min":68,"x_max":932,"o":"m 296 373 l 500 840 l 704 373 l 296 373 m 534 947 q 500 970 524 970 q 465 947 475 970 l 74 52 q 73 24 68 38 q 93 3 79 9 q 108 0 100 0 q 142 22 132 0 l 264 300 q 276 298 270 298 l 724 298 q 736 300 730 298 l 857 22 q 878 3 863 8 q 906 3 892 -3 q 926 24 920 9 q 926 52 932 38 l 534 947 m 522 1162 q 495 1172 510 1173 q 470 1161 481 1172 l 417 1108 q 406 1082 406 1097 q 417 1055 406 1067 q 444 1044 428 1044 q 470 1055 459 1044 l 498 1084 l 531 1054 q 555 1044 541 1044 q 583 1057 572 1044 q 593 1084 593 1069 q 581 1109 592 1099 l 522 1162 z "},"ã":{"ha":1000,"x_min":68,"x_max":932,"o":"m 296 373 l 500 840 l 704 373 l 296 373 m 906 3 q 926 24 920 9 q 926 52 932 38 l 534 947 q 500 970 524 970 q 465 947 475 970 l 74 52 q 73 24 68 38 q 93 3 79 9 q 108 0 100 0 q 142 22 132 0 l 264 300 q 276 298 270 298 l 724 298 q 736 300 730 298 l 857 22 q 878 3 863 8 q 906 3 892 -3 m 585 1152 q 559 1130 568 1135 q 540 1125 549 1124 q 520 1137 534 1126 q 515 1142 517 1141 q 425 1162 471 1177 q 381 1133 404 1154 q 369 1107 370 1122 q 379 1080 369 1091 q 406 1068 390 1069 q 432 1078 420 1068 q 450 1091 443 1089 q 468 1084 456 1093 q 473 1080 469 1083 q 529 1051 503 1055 q 543 1050 536 1050 q 597 1065 570 1050 q 637 1098 614 1075 q 648 1124 648 1109 q 638 1150 649 1139 q 612 1162 627 1162 q 585 1152 596 1162 z "},"ä":{"ha":1000,"x_min":68,"x_max":932,"o":"m 537 1101 q 548 1074 537 1085 q 574 1063 559 1063 q 601 1074 590 1063 q 612 1101 612 1085 q 601 1127 612 1116 q 574 1138 590 1138 q 548 1127 559 1138 q 537 1101 537 1116 m 425 1138 q 399 1127 410 1138 q 388 1101 388 1116 q 399 1074 388 1085 q 425 1063 410 1063 q 452 1074 441 1063 q 463 1101 463 1085 q 452 1127 463 1116 q 425 1138 441 1138 m 296 373 l 500 840 l 704 373 l 296 373 m 534 947 q 500 970 524 970 q 465 947 475 970 l 74 52 q 73 24 68 38 q 93 3 79 9 q 108 0 100 0 q 142 22 132 0 l 264 300 q 276 298 270 298 l 724 298 q 736 300 730 298 l 857 22 q 878 3 863 8 q 906 3 892 -3 q 926 24 920 9 q 926 52 932 38 l 534 947 z "},"å":{"ha":1000,"x_min":68,"x_max":932,"o":"m 296 373 l 500 840 l 704 373 l 296 373 m 500 1054 q 519 1046 511 1054 q 528 1026 528 1038 q 519 1006 528 1015 q 500 998 511 998 q 480 1006 488 998 q 471 1026 471 1015 q 480 1046 471 1038 q 500 1054 488 1054 m 534 947 q 533 949 534 948 q 584 1026 584 971 q 559 1085 584 1061 q 500 1110 534 1110 q 440 1085 465 1110 q 416 1026 416 1061 q 466 949 416 971 l 465 947 l 74 52 q 73 24 68 38 q 93 3 79 9 q 108 0 100 0 q 142 22 132 0 l 264 300 q 276 298 270 298 l 724 298 q 736 300 730 298 l 857 22 q 878 3 863 8 q 906 3 892 -3 q 926 24 920 9 q 926 52 932 38 l 534 947 z "},"æ":{"ha":1202,"x_min":68,"x_max":1134,"o":"m 296 373 l 497 833 l 669 373 l 296 373 m 1097 0 q 1123 11 1112 0 q 1134 37 1134 22 q 1123 64 1134 53 q 1097 75 1112 75 l 861 75 l 722 448 l 1097 448 q 1123 458 1112 448 q 1134 485 1134 469 q 1123 511 1134 500 q 1097 522 1112 522 l 693 522 l 553 895 l 1097 895 q 1123 906 1112 895 q 1134 932 1134 917 q 1123 959 1134 948 q 1097 970 1112 970 l 499 970 q 496 970 498 970 l 496 970 q 489 968 492 969 l 488 968 q 486 967 487 968 q 485 967 484 966 q 479 964 482 966 q 478 963 479 964 q 476 962 477 962 q 475 961 475 961 q 471 956 473 959 q 471 956 471 956 q 469 954 470 955 q 469 953 469 954 q 467 951 468 952 q 467 950 467 949 q 465 947 466 949 l 465 947 l 465 947 l 204 351 q 204 350 204 351 l 74 52 q 73 24 68 38 q 93 3 79 9 q 108 0 100 0 q 142 22 132 0 l 263 298 l 698 298 l 800 24 q 836 0 810 0 l 1097 0 z "},"ç":{"ha":975,"x_min":68,"x_max":907,"o":"m 843 774 q 869 763 854 763 q 896 774 885 763 q 907 800 907 785 q 896 827 907 816 q 553 969 753 969 q 210 827 352 969 q 68 484 68 685 q 210 141 68 283 q 478 5 322 28 l 478 -57 q 489 -83 478 -73 q 515 -94 500 -94 q 542 -83 531 -94 q 553 -57 553 -73 l 553 -1 q 896 141 753 -1 q 907 168 907 152 q 896 194 907 183 q 869 205 885 205 q 843 194 854 205 q 553 74 723 74 q 262 194 382 74 q 142 484 142 314 q 262 774 142 654 q 553 894 382 894 q 843 774 723 894 z "},"è":{"ha":826,"x_min":68,"x_max":758,"o":"m 721 895 q 747 906 736 895 q 758 932 758 917 q 747 959 758 948 q 721 970 736 970 l 105 970 q 79 959 90 970 q 68 932 68 948 l 68 37 q 79 11 68 22 q 105 0 90 0 l 721 0 q 747 11 736 0 q 758 37 758 22 q 747 64 758 53 q 721 75 736 75 l 142 75 l 142 448 l 572 448 q 597 458 587 448 q 609 485 609 469 q 597 511 609 500 q 572 522 587 522 l 142 522 l 142 895 l 721 895 m 360 1161 q 349 1135 349 1150 q 360 1108 349 1119 l 413 1055 q 439 1044 424 1044 q 466 1055 454 1044 q 477 1082 477 1066 q 466 1108 477 1097 l 413 1161 q 387 1172 402 1172 q 360 1161 371 1172 z "},"é":{"ha":826,"x_min":68,"x_max":758,"o":"m 721 895 q 747 906 736 895 q 758 932 758 917 q 747 959 758 948 q 721 970 736 970 l 105 970 q 79 959 90 970 q 68 932 68 948 l 68 37 q 79 11 68 22 q 105 0 90 0 l 721 0 q 747 11 736 0 q 758 37 758 22 q 747 64 758 53 q 721 75 736 75 l 142 75 l 142 448 l 572 448 q 597 458 587 448 q 609 485 609 469 q 597 511 609 500 q 572 522 587 522 l 142 522 l 142 895 l 721 895 m 360 1055 q 387 1044 371 1044 q 413 1055 402 1044 l 466 1108 q 477 1135 477 1119 q 466 1161 477 1150 q 439 1172 454 1172 q 413 1161 424 1172 l 360 1108 q 349 1082 349 1097 q 360 1055 349 1066 z "},"ê":{"ha":826,"x_min":68,"x_max":758,"o":"m 721 895 q 747 906 736 895 q 758 932 758 917 q 747 959 758 948 q 721 970 736 970 l 105 970 q 79 959 90 970 q 68 932 68 948 l 68 37 q 79 11 68 22 q 105 0 90 0 l 721 0 q 747 11 736 0 q 758 37 758 22 q 747 64 758 53 q 721 75 736 75 l 142 75 l 142 448 l 572 448 q 597 458 587 448 q 609 485 609 469 q 597 511 609 500 q 572 522 587 522 l 142 522 l 142 895 l 721 895 m 435 1162 q 409 1172 423 1173 q 383 1161 394 1171 l 330 1108 q 319 1082 319 1097 q 330 1055 319 1066 q 357 1044 342 1044 q 383 1055 372 1044 l 411 1083 l 444 1054 q 469 1044 454 1044 q 496 1057 486 1044 q 506 1084 507 1069 q 494 1109 505 1099 l 435 1162 z "},"ë":{"ha":826,"x_min":68,"x_max":758,"o":"m 721 895 q 747 906 736 895 q 758 932 758 917 q 747 959 758 948 q 721 970 736 970 l 105 970 q 79 959 90 970 q 68 932 68 948 l 68 37 q 79 11 68 22 q 105 0 90 0 l 721 0 q 747 11 736 0 q 758 37 758 22 q 747 64 758 53 q 721 75 736 75 l 142 75 l 142 448 l 572 448 q 597 458 587 448 q 609 485 609 469 q 597 511 609 500 q 572 522 587 522 l 142 522 l 142 895 l 721 895 m 514 1074 q 525 1101 525 1085 q 514 1127 525 1116 q 488 1138 503 1138 q 461 1127 472 1138 q 450 1101 450 1116 q 461 1074 450 1085 q 488 1063 472 1063 q 514 1074 503 1063 m 301 1101 q 312 1074 301 1085 q 338 1063 323 1063 q 365 1074 354 1063 q 376 1101 376 1085 q 365 1127 376 1116 q 338 1138 354 1138 q 312 1127 323 1138 q 301 1101 301 1116 z "},"ì":{"ha":263,"x_min":68,"x_max":195,"o":"m 132 970 q 105 959 116 970 q 94 932 94 948 l 94 37 q 105 11 94 22 q 132 0 116 0 q 158 11 147 0 q 169 37 169 22 l 169 932 q 158 959 169 948 q 132 970 147 970 m 132 1161 q 105 1172 121 1172 q 79 1161 90 1172 q 68 1135 68 1150 q 79 1108 68 1119 l 132 1055 q 158 1044 142 1044 q 184 1055 174 1044 q 195 1082 195 1066 q 184 1108 195 1097 l 132 1161 z "},"í":{"ha":263,"x_min":68,"x_max":195,"o":"m 132 970 q 105 959 116 970 q 94 932 94 948 l 94 37 q 105 11 94 22 q 132 0 116 0 q 158 11 147 0 q 169 37 169 22 l 169 932 q 158 959 169 948 q 132 970 147 970 m 79 1108 q 68 1082 68 1097 q 79 1055 68 1066 q 105 1044 90 1044 q 132 1055 121 1044 l 184 1108 q 195 1135 195 1119 q 184 1161 195 1150 q 158 1172 174 1172 q 132 1161 142 1172 l 79 1108 z "},"î":{"ha":323,"x_min":68,"x_max":255,"o":"m 161 970 q 135 959 146 970 q 124 932 124 948 l 124 37 q 135 11 124 22 q 161 0 146 0 q 187 11 176 0 q 199 37 199 22 l 199 932 q 187 959 199 948 q 161 970 176 970 m 182 1162 q 157 1172 172 1173 q 132 1161 142 1171 l 79 1108 q 68 1082 68 1097 q 79 1055 68 1066 q 105 1044 90 1044 q 132 1055 121 1044 l 159 1083 l 192 1054 q 217 1044 203 1044 q 245 1057 234 1044 q 254 1084 255 1069 q 242 1109 254 1099 l 182 1162 z "},"ï":{"ha":359,"x_min":68,"x_max":292,"o":"m 180 970 q 153 959 164 970 q 142 932 142 948 l 142 37 q 153 11 142 22 q 180 0 164 0 q 206 11 195 0 q 217 37 217 22 l 217 932 q 206 959 217 948 q 180 970 195 970 m 254 1138 q 228 1127 239 1138 q 217 1101 217 1116 q 228 1074 217 1085 q 254 1063 239 1063 q 281 1074 270 1063 q 292 1101 292 1085 q 281 1127 292 1116 q 254 1138 270 1138 m 132 1127 q 105 1138 121 1138 q 79 1127 90 1138 q 68 1101 68 1116 q 79 1074 68 1085 q 105 1063 90 1063 q 132 1074 121 1063 q 142 1101 142 1085 q 132 1127 142 1116 z "},"ð":{"ha":975,"x_min":68,"x_max":907,"o":"m 236 75 l 236 448 l 385 448 q 411 458 400 448 q 422 485 422 469 q 411 511 422 500 q 385 522 400 522 l 236 522 l 236 895 l 422 895 q 712 775 592 895 q 833 485 833 654 q 712 195 833 315 q 422 75 592 75 l 236 75 m 199 970 q 172 959 183 970 q 161 932 161 948 l 161 522 l 105 522 q 79 511 90 522 q 68 485 68 500 q 79 458 68 469 q 105 448 90 448 l 161 448 l 161 37 q 172 11 161 22 q 199 0 183 0 l 422 0 q 765 142 623 0 q 907 485 907 284 q 765 828 907 686 q 422 970 623 970 l 199 970 z "},"ñ":{"ha":901,"x_min":68,"x_max":833,"o":"m 527 1151 q 501 1130 510 1135 q 481 1125 490 1124 q 461 1137 475 1126 q 456 1142 458 1140 q 367 1162 412 1177 q 322 1133 345 1154 q 311 1107 311 1122 q 321 1080 310 1091 q 347 1068 331 1069 q 373 1078 362 1068 q 391 1091 385 1089 q 409 1084 397 1093 q 414 1080 410 1082 q 470 1051 444 1055 q 484 1050 477 1050 q 538 1065 512 1050 q 578 1098 555 1075 q 590 1124 590 1108 q 579 1150 590 1139 q 553 1162 568 1162 q 527 1151 538 1162 m 795 970 q 769 959 780 970 q 758 932 758 948 l 758 146 l 135 956 q 93 968 119 977 q 68 932 68 960 l 68 37 q 79 11 68 22 q 105 0 90 0 q 132 11 121 0 q 142 37 142 22 l 142 823 l 766 14 q 795 0 777 0 q 807 2 802 0 q 833 37 833 11 l 833 932 q 822 959 833 948 q 795 970 810 970 z "},"ò":{"ha":1105,"x_min":68,"x_max":1038,"o":"m 553 75 q 262 195 383 75 q 142 485 142 315 q 262 775 142 654 q 553 895 383 895 q 843 775 722 895 q 963 485 963 654 q 843 195 963 315 q 553 75 722 75 m 553 970 q 210 828 352 970 q 68 485 68 686 q 210 142 68 284 q 553 0 352 0 q 896 142 753 0 q 1038 485 1038 284 q 896 828 1038 686 q 553 970 753 970 m 500 1161 q 489 1135 489 1150 q 500 1108 489 1119 l 553 1055 q 579 1044 564 1044 q 606 1055 595 1044 q 616 1082 616 1066 q 606 1108 616 1097 l 553 1161 q 526 1172 542 1172 q 500 1161 511 1172 z "},"ó":{"ha":1105,"x_min":68,"x_max":1038,"o":"m 553 75 q 262 195 383 75 q 142 485 142 315 q 262 775 142 654 q 553 895 383 895 q 843 775 722 895 q 963 485 963 654 q 843 195 963 315 q 553 75 722 75 m 553 970 q 210 828 352 970 q 68 485 68 686 q 210 142 68 284 q 553 0 352 0 q 896 142 753 0 q 1038 485 1038 284 q 896 828 1038 686 q 553 970 753 970 m 500 1055 q 526 1044 511 1044 q 553 1055 542 1044 l 606 1108 q 616 1135 616 1119 q 606 1161 616 1150 q 579 1172 595 1172 q 553 1161 564 1172 l 500 1108 q 489 1082 489 1097 q 500 1055 489 1066 z "},"ô":{"ha":1105,"x_min":68,"x_max":1038,"o":"m 553 75 q 262 195 383 75 q 142 485 142 315 q 262 775 142 654 q 553 895 383 895 q 843 775 722 895 q 963 485 963 654 q 843 195 963 315 q 553 75 722 75 m 553 970 q 210 828 352 970 q 68 485 68 686 q 210 142 68 284 q 553 0 352 0 q 896 142 753 0 q 1038 485 1038 284 q 896 828 1038 686 q 553 970 753 970 m 551 1083 l 584 1054 q 609 1044 595 1044 q 637 1057 625 1044 q 646 1084 647 1069 q 633 1109 645 1099 l 574 1162 q 549 1172 564 1173 q 523 1161 534 1171 l 471 1108 q 460 1082 460 1097 q 471 1055 460 1066 q 497 1044 481 1044 q 523 1055 512 1044 l 551 1083 z "},"õ":{"ha":1105,"x_min":68,"x_max":1038,"o":"m 553 75 q 262 195 383 75 q 142 485 142 315 q 262 775 142 654 q 553 895 383 895 q 843 775 722 895 q 963 485 963 654 q 843 195 963 315 q 553 75 722 75 m 553 970 q 210 828 352 970 q 68 485 68 686 q 210 142 68 284 q 553 0 352 0 q 896 142 753 0 q 1038 485 1038 284 q 896 828 1038 686 q 553 970 753 970 m 476 1078 q 494 1091 487 1089 q 511 1084 500 1093 q 516 1080 513 1083 q 573 1051 547 1055 q 586 1050 579 1050 q 641 1065 614 1050 q 681 1098 658 1075 q 692 1124 692 1108 q 682 1150 692 1139 q 656 1162 671 1162 q 629 1151 640 1162 q 604 1130 612 1135 q 584 1125 593 1124 q 564 1137 578 1126 q 558 1142 560 1141 q 469 1162 515 1177 q 425 1133 448 1154 q 413 1107 414 1122 q 423 1080 412 1091 q 449 1068 434 1069 q 476 1078 465 1068 z "},"ö":{"ha":1105,"x_min":68,"x_max":1038,"o":"m 553 75 q 262 195 383 75 q 142 485 142 315 q 262 775 142 654 q 553 895 383 895 q 843 775 722 895 q 963 485 963 654 q 843 195 963 315 q 553 75 722 75 m 553 970 q 210 828 352 970 q 68 485 68 686 q 210 142 68 284 q 553 0 352 0 q 896 142 753 0 q 1038 485 1038 284 q 896 828 1038 686 q 553 970 753 970 m 654 1074 q 665 1101 665 1085 q 654 1127 665 1116 q 627 1138 643 1138 q 601 1127 612 1138 q 590 1101 590 1116 q 601 1074 590 1085 q 627 1063 612 1063 q 654 1074 643 1063 m 452 1074 q 478 1063 463 1063 q 505 1074 494 1063 q 515 1101 515 1085 q 505 1127 515 1116 q 478 1138 494 1138 q 452 1127 463 1138 q 441 1101 441 1116 q 452 1074 441 1085 z "},"÷":{"ha":528,"x_min":68,"x_max":460,"o":"m 264 336 q 290 347 279 336 q 301 373 301 357 q 290 399 301 389 q 264 410 279 410 q 237 399 248 410 q 227 373 227 389 q 237 347 227 357 q 264 336 248 336 m 290 570 q 301 597 301 581 q 290 623 301 612 q 264 634 279 634 q 237 623 248 634 q 227 597 227 612 q 237 570 227 581 q 264 559 248 559 q 290 570 279 559 m 460 485 q 448 511 460 500 q 422 522 437 522 l 105 522 q 79 511 90 522 q 68 485 68 500 q 79 458 68 469 q 105 448 90 448 l 422 448 q 448 458 437 448 q 460 485 460 469 z "},"ø":{"ha":1105,"x_min":68,"x_max":1038,"o":"m 963 485 q 843 195 963 315 q 553 75 722 75 q 290 170 404 75 l 868 747 q 963 485 963 633 m 142 485 q 262 775 142 654 q 553 895 383 895 q 815 800 701 895 l 237 222 q 142 485 142 336 m 1027 959 q 1000 970 1016 970 q 974 959 985 970 l 868 853 q 553 970 732 970 q 210 828 352 970 q 68 485 68 686 q 184 170 68 305 l 79 64 q 68 37 68 53 q 79 11 68 22 q 105 0 90 0 q 132 11 121 0 l 237 117 q 553 0 373 0 q 896 142 753 0 q 1038 485 1038 284 q 921 800 1038 665 l 1027 906 q 1038 932 1038 917 q 1027 959 1038 948 z "},"ù":{"ha":863,"x_min":68,"x_max":795,"o":"m 458 1048 q 484 1059 473 1048 q 495 1085 495 1069 q 484 1112 495 1101 l 431 1164 q 405 1175 420 1175 q 379 1164 390 1175 q 368 1138 368 1153 q 379 1112 368 1122 l 431 1059 q 458 1048 442 1048 m 758 970 q 732 959 743 970 q 721 932 721 948 l 721 363 q 636 159 721 244 q 431 75 551 75 q 227 159 312 75 q 142 363 142 244 l 142 932 q 132 959 142 948 q 105 970 121 970 q 79 959 90 970 q 68 932 68 948 l 68 363 q 174 106 68 214 q 431 0 281 0 q 688 106 582 0 q 795 363 795 214 l 795 932 q 785 959 795 948 q 758 970 773 970 z "},"ú":{"ha":863,"x_min":68,"x_max":795,"o":"m 484 1112 q 495 1138 495 1122 q 484 1164 495 1153 q 458 1175 473 1175 q 431 1164 442 1175 l 379 1112 q 368 1085 368 1101 q 379 1059 368 1069 q 405 1048 390 1048 q 431 1059 420 1048 l 484 1112 m 758 970 q 732 959 743 970 q 721 932 721 948 l 721 363 q 636 159 721 244 q 431 75 551 75 q 227 159 312 75 q 142 363 142 244 l 142 932 q 132 959 142 948 q 105 970 121 970 q 79 959 90 970 q 68 932 68 948 l 68 363 q 174 106 68 214 q 431 0 281 0 q 688 106 582 0 q 795 363 795 214 l 795 932 q 785 959 795 948 q 758 970 773 970 z "},"û":{"ha":863,"x_min":68,"x_max":795,"o":"m 430 1086 l 463 1057 q 488 1048 473 1048 q 515 1060 504 1048 q 525 1087 526 1072 q 512 1113 524 1103 l 453 1166 q 427 1175 442 1175 q 402 1164 412 1175 l 349 1112 q 338 1085 338 1101 q 349 1059 338 1069 q 376 1048 360 1048 q 402 1059 391 1048 l 430 1086 m 758 970 q 732 959 743 970 q 721 932 721 948 l 721 363 q 636 159 721 244 q 431 75 551 75 q 227 159 312 75 q 142 363 142 244 l 142 932 q 132 959 142 948 q 105 970 121 970 q 79 959 90 970 q 68 932 68 948 l 68 363 q 174 106 68 214 q 431 0 281 0 q 688 106 582 0 q 795 363 795 214 l 795 932 q 785 959 795 948 q 758 970 773 970 z "},"ü":{"ha":863,"x_min":68,"x_max":795,"o":"m 532 1078 q 543 1103 543 1088 q 532 1130 543 1119 q 506 1141 522 1141 q 479 1130 491 1141 q 469 1103 469 1119 q 479 1078 469 1088 q 506 1066 491 1066 q 532 1078 522 1066 m 383 1078 q 394 1103 394 1088 q 383 1130 394 1119 q 357 1141 372 1141 q 330 1130 342 1141 q 319 1103 319 1119 q 330 1078 319 1088 q 357 1066 342 1066 q 383 1078 372 1066 m 758 970 q 732 959 743 970 q 721 932 721 948 l 721 363 q 636 159 721 244 q 431 75 551 75 q 227 159 312 75 q 142 363 142 244 l 142 932 q 132 959 142 948 q 105 970 121 970 q 79 959 90 970 q 68 932 68 948 l 68 363 q 174 106 68 214 q 431 0 281 0 q 688 106 582 0 q 795 363 795 214 l 795 932 q 785 959 795 948 q 758 970 773 970 z "},"ý":{"ha":924,"x_min":68,"x_max":857,"o":"m 515 1112 q 526 1138 526 1122 q 515 1164 526 1153 q 489 1175 504 1175 q 463 1164 473 1175 l 410 1112 q 399 1085 399 1101 q 410 1059 399 1069 q 436 1048 420 1048 q 463 1059 452 1048 l 515 1112 m 837 964 q 808 969 823 972 q 785 953 793 966 l 463 443 l 140 953 q 116 969 131 966 q 88 964 101 972 q 71 941 75 956 q 77 913 68 926 l 425 362 l 425 37 q 436 11 425 22 q 463 0 447 0 q 489 11 477 0 q 500 37 500 22 l 500 362 l 848 913 q 853 941 857 926 q 837 964 850 956 z "},"þ":{"ha":677,"x_min":68,"x_max":609,"o":"m 142 277 l 142 692 l 327 692 q 473 631 412 692 q 534 485 534 571 q 473 338 534 399 q 327 277 412 277 l 142 277 m 142 767 l 142 932 q 132 959 142 948 q 105 970 121 970 q 79 959 90 970 q 68 932 68 948 l 68 37 q 79 11 68 22 q 105 0 90 0 q 132 11 121 0 q 142 37 142 22 l 142 203 l 327 203 q 526 286 444 203 q 609 485 609 368 q 526 684 609 602 q 327 767 444 767 l 142 767 z "},"ÿ":{"ha":924,"x_min":68,"x_max":857,"o":"m 564 1078 q 574 1103 574 1088 q 564 1130 574 1119 q 537 1141 552 1141 q 511 1130 522 1141 q 500 1103 500 1119 q 511 1078 500 1088 q 537 1066 522 1066 q 564 1078 552 1066 m 414 1078 q 425 1103 425 1088 q 414 1130 425 1119 q 388 1141 403 1141 q 361 1130 372 1141 q 351 1103 351 1119 q 361 1078 351 1088 q 388 1066 372 1066 q 414 1078 403 1066 m 837 964 q 808 969 823 972 q 785 953 793 966 l 463 443 l 140 953 q 116 969 131 966 q 88 964 101 972 q 71 941 75 956 q 77 913 68 926 l 425 362 l 425 37 q 436 11 425 22 q 463 0 447 0 q 489 11 477 0 q 500 37 500 22 l 500 362 l 848 913 q 853 941 857 926 q 837 964 850 956 z "},"ı":{"ha":210,"x_min":68,"x_max":142,"o":"m 105 0 q 132 11 121 0 q 142 37 142 22 l 142 932 q 132 959 142 948 q 105 970 121 970 q 79 959 90 970 q 68 932 68 948 l 68 37 q 79 11 68 22 q 105 0 90 0 z "},"‘":{"ha":210,"x_min":68,"x_max":142,"o":"m 105 821 q 132 831 121 821 q 142 858 142 842 l 142 932 q 132 959 142 948 q 105 970 121 970 q 79 959 90 970 q 68 932 68 948 l 68 858 q 79 831 68 842 q 105 821 90 821 z "},"’":{"ha":210,"x_min":68,"x_max":142,"o":"m 105 821 q 132 831 121 821 q 142 858 142 842 l 142 932 q 132 959 142 948 q 105 970 121 970 q 79 959 90 970 q 68 932 68 948 l 68 858 q 79 831 68 842 q 105 821 90 821 z "},"“":{"ha":322,"x_min":68,"x_max":254,"o":"m 105 821 q 132 831 121 821 q 142 858 142 842 l 142 932 q 132 959 142 948 q 105 970 121 970 q 79 959 90 970 q 68 932 68 948 l 68 858 q 79 831 68 842 q 105 821 90 821 m 254 932 q 243 959 254 948 q 217 970 233 970 q 191 959 201 970 q 180 932 180 948 l 180 858 q 191 831 180 842 q 217 821 201 821 q 243 831 233 821 q 254 858 254 842 l 254 932 z "},"”":{"ha":322,"x_min":68,"x_max":254,"o":"m 105 821 q 132 831 121 821 q 142 858 142 842 l 142 932 q 132 959 142 948 q 105 970 121 970 q 79 959 90 970 q 68 932 68 948 l 68 858 q 79 831 68 842 q 105 821 90 821 m 254 932 q 243 959 254 948 q 217 970 233 970 q 191 959 201 970 q 180 932 180 948 l 180 858 q 191 831 180 842 q 217 821 201 821 q 243 831 233 821 q 254 858 254 842 l 254 932 z "},"‹":{"ha":397,"x_min":68,"x_max":330,"o":"m 319 676 q 294 688 309 688 q 267 679 278 689 l 80 511 q 68 484 68 500 q 80 456 68 467 l 267 288 q 292 278 277 278 q 319 290 309 278 q 329 317 330 302 q 317 343 328 333 l 161 484 l 317 623 q 329 649 328 633 q 319 676 330 665 z "},"›":{"ha":397,"x_min":68,"x_max":330,"o":"m 78 676 q 68 649 68 665 q 81 623 69 633 l 237 484 l 81 343 q 68 317 69 333 q 78 290 68 302 q 106 278 90 278 q 131 288 120 278 l 317 456 q 330 484 330 467 q 317 511 330 500 l 131 679 q 104 688 119 689 q 78 676 88 688 z "},"€":{"ha":732,"x_min":68,"x_max":665,"o":"m 627 895 q 654 906 643 895 q 665 932 665 917 q 654 959 665 948 q 627 970 643 970 q 284 828 427 970 q 151 578 179 723 l 105 578 q 79 567 90 578 q 68 541 68 556 q 79 515 68 526 q 105 504 90 504 l 143 504 q 142 485 142 493 q 146 429 142 457 l 105 429 q 79 418 90 429 q 68 392 68 407 q 79 366 68 376 q 105 355 90 355 l 160 355 q 284 142 194 233 q 627 0 427 0 q 654 11 643 0 q 665 37 665 22 q 654 64 665 53 q 627 75 643 75 q 386 153 494 75 q 238 355 280 231 l 515 355 q 542 366 531 355 q 553 392 553 376 q 542 418 553 407 q 515 429 531 429 l 221 429 q 217 485 217 457 q 218 504 217 494 l 515 504 q 542 515 531 504 q 553 541 553 526 q 542 567 553 556 q 515 578 531 578 l 228 578 q 370 805 260 715 q 627 895 483 895 z "},"−":{"ha":528,"x_min":68,"x_max":460,"o":"m 460 485 q 448 511 460 500 q 422 522 437 522 l 105 522 q 79 511 90 522 q 68 485 68 500 q 79 458 68 469 q 105 448 90 448 l 422 448 q 448 458 437 448 q 460 485 460 469 z "},"":{"ha":728,"x_min":0,"x_max":0,"o":""},"":{"ha":733,"x_min":0,"x_max":0,"o":""}}}
